<svg width="25" height="25" viewBox="0 0 25 25" fill="none" xmlns="http://www.w3.org/2000/svg">
<path d="M18.4822 24.1327C17.2208 24.1327 15.8924 23.8313 14.5194 23.2508C13.1798 22.6815 11.8291 21.9001 10.5119 20.9513C9.20588 19.9913 7.94448 18.9197 6.75007 17.7476C5.56681 16.5532 4.49518 15.2918 3.54634 13.9969C2.58634 12.6573 1.81611 11.3178 1.26914 10.0229C0.68867 8.63874 0.398438 7.2992 0.398438 6.03781C0.398438 5.16711 0.554717 4.34106 0.856112 3.57083C1.16867 2.77827 1.671 2.04153 2.35193 1.40525C3.21146 0.556877 4.19379 0.13269 5.24309 0.13269C5.67844 0.13269 6.12495 0.233156 6.50448 0.41176C6.93983 0.61269 7.30821 0.914086 7.57611 1.31595L10.1659 4.96618C10.4003 5.2899 10.5789 5.60246 10.7017 5.91502C10.8468 6.2499 10.9249 6.58478 10.9249 6.9085C10.9249 7.33269 10.8022 7.74571 10.5677 8.13641C10.4003 8.43781 10.1436 8.76153 9.81983 9.08525L9.06076 9.87781C9.07193 9.9113 9.08309 9.93362 9.09425 9.95595C9.22821 10.1904 9.49611 10.5922 10.0096 11.195C10.5566 11.8201 11.0701 12.3894 11.5836 12.9141C12.2422 13.5615 12.7891 14.075 13.3026 14.4992C13.9389 15.035 14.3519 15.3029 14.5975 15.4257L14.5752 15.4815L15.3901 14.6778C15.7361 14.3318 16.071 14.075 16.3947 13.9076C17.0087 13.528 17.7901 13.4611 18.5715 13.7848C18.8617 13.9076 19.1743 14.075 19.5091 14.3094L23.2152 16.9439C23.6282 17.2229 23.9296 17.5801 24.1082 18.0043C24.2756 18.4285 24.3538 18.8192 24.3538 19.2099C24.3538 19.7457 24.231 20.2815 23.9966 20.7839C23.7622 21.2862 23.4719 21.7215 23.1036 22.1234C22.4673 22.8266 21.7752 23.329 20.9715 23.6527C20.2012 23.9652 19.364 24.1327 18.4822 24.1327ZM5.24309 1.80711C4.62914 1.80711 4.05983 2.07502 3.51286 2.61083C2.99937 3.09083 2.64216 3.61548 2.4189 4.18478C2.18448 4.76525 2.07286 5.3792 2.07286 6.03781C2.07286 7.07595 2.31844 8.20339 2.8096 9.36432C3.31193 10.5476 4.01518 11.7755 4.90821 13.0034C5.80123 14.2313 6.81704 15.4257 7.93332 16.5532C9.0496 17.6583 10.2552 18.6852 11.4943 19.5894C12.6998 20.4713 13.9389 21.1857 15.1668 21.6992C17.0756 22.5141 18.8617 22.7039 20.3352 22.0899C20.9045 21.8555 21.4068 21.4983 21.8645 20.9848C22.1212 20.7057 22.3222 20.4043 22.4896 20.0471C22.6236 19.768 22.6905 19.4778 22.6905 19.1876C22.6905 19.009 22.657 18.8304 22.5677 18.6294C22.5343 18.5625 22.4673 18.4397 22.2552 18.2946L18.5491 15.6601C18.3259 15.5039 18.1249 15.3922 17.9352 15.3141C17.6896 15.2136 17.5891 15.1132 17.2096 15.3476C16.9863 15.4592 16.7854 15.6266 16.5622 15.8499L15.7138 16.6871C15.2784 17.1113 14.6087 17.2118 14.0952 17.022L13.7938 16.888C13.3361 16.6425 12.8003 16.2629 12.2087 15.7606C11.6729 15.3029 11.0924 14.7671 10.3891 14.075C9.84216 13.5169 9.29518 12.9252 8.72588 12.2666C8.20123 11.6527 7.82169 11.128 7.58728 10.6927L7.45332 10.3578C7.38635 10.1011 7.36402 9.95595 7.36402 9.79967C7.36402 9.39781 7.50914 9.0406 7.78821 8.76153L8.62541 7.89083C8.84867 7.66757 9.01611 7.45548 9.12774 7.26571C9.21704 7.1206 9.25053 6.99781 9.25053 6.88618C9.25053 6.79688 9.21704 6.66292 9.16123 6.52897C9.08309 6.35037 8.9603 6.14943 8.80402 5.93734L6.21425 2.27595C6.10262 2.11967 5.96867 2.00804 5.80123 1.9299C5.62262 1.85176 5.43286 1.80711 5.24309 1.80711ZM14.5752 15.4927L14.3966 16.2518L14.698 15.4704C14.6422 15.4592 14.5975 15.4704 14.5752 15.4927Z" fill="#CBDCF1"/>
</svg>
