<svg width="33" height="33" viewBox="0 0 33 33" fill="none" xmlns="http://www.w3.org/2000/svg">
<g id="icon-react" clip-path="url(#clip0_253_3172)">
<g id="Group">
<g id="Clip path group">
<mask id="mask0_253_3172" style="mask-type:luminance" maskUnits="userSpaceOnUse" x="0" y="0" width="33" height="33">
<g id="akarIconsReactFill0">
<path id="Vector" d="M0.268066 0.208496H32.2681V32.2085H0.268066V0.208496Z" fill="white"/>
</g>
</mask>
<g mask="url(#mask0_253_3172)">
<g id="Group_2">
<path id="Vector_2" d="M32.2681 15.7937C32.2681 13.6737 29.6134 11.6644 25.5427 10.4191C26.4827 6.27108 26.0654 2.96975 24.2254 1.91241C23.7796 1.66271 23.2749 1.53702 22.7641 1.54841V3.00175C23.0641 3.00175 23.3054 3.06175 23.5081 3.17241C24.3947 3.68175 24.7801 5.61775 24.4801 8.10975C24.4081 8.72308 24.2907 9.36841 24.1467 10.0271C22.7836 9.6986 21.4001 9.46118 20.0054 9.31641C19.1745 8.17013 18.2681 7.0806 17.2921 6.05508C19.4187 4.07908 21.4147 2.99641 22.7721 2.99641V1.54175C20.9774 1.54175 18.6294 2.82041 16.2547 5.03775C13.8814 2.83508 11.5321 1.56841 9.73873 1.56841V3.02175C11.0894 3.02175 13.0921 4.09908 15.2187 6.06175C14.3054 7.02175 13.3921 8.10975 12.5241 9.31641C11.1265 9.45958 9.74054 9.69926 8.37607 10.0337C8.23186 9.40947 8.11839 8.77849 8.03607 8.14308C7.7294 5.64975 8.10807 3.71375 8.9894 3.19908C9.18407 3.08175 9.43873 3.02841 9.73873 3.02841V1.57508C9.19207 1.57508 8.69473 1.69241 8.2654 1.93908C6.43207 2.99641 6.0214 6.28975 6.96673 10.4257C2.9094 11.6791 0.268066 13.6804 0.268066 15.7937C0.268066 17.9137 2.92273 19.9231 6.9934 21.1671C6.0534 25.3164 6.47073 28.6177 8.31073 29.6737C8.73473 29.9217 9.23073 30.0391 9.7774 30.0391C11.5721 30.0391 13.9201 28.7604 16.2947 26.5431C18.6681 28.7471 21.0161 30.0124 22.8107 30.0124C23.3255 30.0233 23.834 29.8972 24.2841 29.6471C26.1174 28.5911 26.5281 25.2977 25.5827 21.1617C29.6267 19.9164 32.2681 17.9071 32.2681 15.7937ZM23.7747 11.4431C23.5214 12.3149 23.2277 13.1745 22.8947 14.0191C22.3496 12.9588 21.7511 11.9268 21.1014 10.9271C22.0281 11.0644 22.9214 11.2337 23.7761 11.4431H23.7747ZM20.7881 18.3897C20.2997 19.2424 19.7752 20.0738 19.2161 20.8817C17.2591 21.0542 15.2908 21.0565 13.3334 20.8884C12.2107 19.2847 11.2288 17.5868 10.3987 15.8137C11.2275 14.0366 12.2052 12.3327 13.3214 10.7204C15.2779 10.5476 17.2458 10.5449 19.2027 10.7124C19.7441 11.4884 20.2734 12.3177 20.7814 13.1924C21.2774 14.0457 21.7281 14.9124 22.1387 15.7871C21.7235 16.6724 21.2729 17.5406 20.7881 18.3897ZM22.8947 17.5417C23.2467 18.4151 23.5481 19.2897 23.7947 20.1377C22.9414 20.3471 22.0401 20.5231 21.1081 20.6591C21.7551 19.6503 22.3514 18.6099 22.8947 17.5417ZM16.2814 24.5017C15.6747 23.8751 15.0681 23.1777 14.4681 22.4137C15.0547 22.4404 15.6547 22.4604 16.2614 22.4604C16.8747 22.4604 17.4814 22.4471 18.0747 22.4137C17.4881 23.1777 16.8814 23.8751 16.2814 24.5017ZM11.4281 20.6591C10.5291 20.5288 9.63655 20.3571 8.7534 20.1444C8.99473 19.3031 9.29473 18.4351 9.6334 17.5684C9.9014 18.0884 10.1827 18.6111 10.4894 19.1337C10.7961 19.6551 11.1081 20.1644 11.4281 20.6591ZM16.2481 7.08575C16.8547 7.71241 17.4614 8.40975 18.0614 9.17375C17.4747 9.14708 16.8747 9.12708 16.2681 9.12708C15.6547 9.12708 15.0481 9.14041 14.4547 9.17375C15.0414 8.40975 15.6481 7.71241 16.2481 7.08575ZM11.4214 10.9284C10.7746 11.935 10.1783 12.9732 9.63473 14.0391C9.29235 13.189 8.99199 12.3226 8.73473 11.4431C9.58807 11.2404 10.4894 11.0644 11.4214 10.9284ZM5.51873 19.0937C3.2094 18.1097 1.71607 16.8177 1.71607 15.7937C1.71607 14.7697 3.2094 13.4711 5.51873 12.4937C6.07873 12.2524 6.69207 12.0364 7.3254 11.8351C7.6974 13.1124 8.18673 14.4431 8.79207 15.8071C8.22055 17.09 7.73721 18.4104 7.3454 19.7591C6.726 19.5673 6.11638 19.3453 5.51873 19.0937ZM9.02807 28.4137C8.1414 27.9071 7.75607 25.9684 8.05607 23.4777C8.12807 22.8644 8.2454 22.2177 8.3894 21.5591C9.66673 21.8724 11.0627 22.1137 12.5307 22.2711C13.3616 23.4173 14.2681 24.5069 15.2441 25.5324C13.1174 27.5084 11.1214 28.5911 9.76407 28.5911C9.50799 28.5939 9.25518 28.5334 9.02807 28.4151V28.4137ZM24.5001 23.4444C24.8067 25.9364 24.4281 27.8737 23.5467 28.3884C23.3521 28.5057 23.0974 28.5577 22.7974 28.5577C21.4467 28.5577 19.4441 27.4817 17.3174 25.5177C18.2893 24.4965 19.1897 23.4095 20.0121 22.2644C21.4096 22.1213 22.7956 21.8816 24.1601 21.5471C24.3107 22.2057 24.4267 22.8377 24.5001 23.4444ZM27.0107 19.0937C26.4507 19.3351 25.8374 19.5511 25.2041 19.7524C24.8054 18.3968 24.3154 17.0698 23.7374 15.7804C24.3374 14.4244 24.8187 13.1004 25.1841 11.8284C25.8054 12.0208 26.4172 12.2429 27.0174 12.4937C29.3267 13.4777 30.8201 14.7697 30.8201 15.7937C30.8134 16.8177 29.3201 18.1164 27.0107 19.0937Z" fill="url(#paint0_linear_253_3172)"/>
<path id="Vector_3" d="M16.2614 18.7752C17.0521 18.7752 17.8104 18.4611 18.3695 17.902C18.9286 17.3428 19.2427 16.5845 19.2427 15.7938C19.2427 15.0031 18.9286 14.2448 18.3695 13.6857C17.8104 13.1266 17.0521 12.8125 16.2614 12.8125C15.4707 12.8125 14.7123 13.1266 14.1532 13.6857C13.5941 14.2448 13.28 15.0031 13.28 15.7938C13.28 16.5845 13.5941 17.3428 14.1532 17.902C14.7123 18.4611 15.4707 18.7752 16.2614 18.7752Z" fill="url(#paint1_linear_253_3172)"/>
</g>
</g>
</g>
</g>
</g>
<defs>
<linearGradient id="paint0_linear_253_3172" x1="13.1126" y1="1.54175" x2="49.1392" y2="13.0144" gradientUnits="userSpaceOnUse">
<stop stop-color="#581C87"/>
<stop offset="0.339479" stop-color="#7E22CE"/>
<stop offset="0.782214" stop-color="#A78BFA"/>
<stop offset="0.9999" stop-color="#652F9A"/>
<stop offset="1" stop-color="#A78BFA"/>
</linearGradient>
<linearGradient id="paint1_linear_253_3172" x1="15.6734" y1="12.8125" x2="22.5167" y2="14.7532" gradientUnits="userSpaceOnUse">
<stop stop-color="#581C87"/>
<stop offset="0.339479" stop-color="#7E22CE"/>
<stop offset="0.782214" stop-color="#A78BFA"/>
<stop offset="0.9999" stop-color="#652F9A"/>
<stop offset="1" stop-color="#A78BFA"/>
</linearGradient>
<clipPath id="clip0_253_3172">
<rect width="32" height="32" fill="white" transform="translate(0.268066 0.208496)"/>
</clipPath>
</defs>
</svg>
