<svg width="21" height="24" viewBox="0 0 21 24" fill="none" xmlns="http://www.w3.org/2000/svg">
<path d="M11.6315 14.781C9.2549 14.781 7.31348 12.8507 7.31348 10.463C7.31348 8.07533 9.2549 6.15622 11.6315 6.15622C14.0081 6.15622 15.9495 8.08648 15.9495 10.4742C15.9495 12.8619 14.0081 14.781 11.6315 14.781ZM11.6315 7.82986C10.181 7.82986 8.98712 9.01257 8.98712 10.4742C8.98712 11.9358 10.1699 13.1185 11.6315 13.1185C13.0932 13.1185 14.2759 11.9358 14.2759 10.4742C14.2759 9.01257 13.082 7.82986 11.6315 7.82986Z" fill="#CBDCF1"/>
<path d="M10.4621 24C8.81077 24 7.14827 23.3752 5.85399 22.1367C2.5625 18.9679 -1.07488 13.9135 0.297508 7.89958C1.536 2.44351 6.3003 0 10.4621 0H10.4733C14.635 0 19.3993 2.44351 20.6378 7.91074C21.9991 13.9247 18.3617 18.9679 15.0702 22.1367C13.7759 23.3752 12.1134 24 10.4621 24ZM10.4621 1.67364C7.21522 1.67364 3.04228 3.40307 1.93768 8.26778C0.732654 13.523 4.0353 18.053 7.02554 20.9205C8.95582 22.7838 11.9795 22.7838 13.9098 20.9205C16.8889 18.053 20.1915 13.523 19.0088 8.26778C17.8931 3.40307 13.709 1.67364 10.4621 1.67364Z" fill="#CBDCF1"/>
</svg>
