<svg width="23" height="23" viewBox="0 0 23 23" fill="none" xmlns="http://www.w3.org/2000/svg">
<g id="icon-briefing">
<g id="Group">
<path id="Vector" d="M17.5513 6.73336C17.4913 6.72336 17.4213 6.72336 17.3613 6.73336C15.9815 6.68336 14.8816 5.5535 14.8816 4.15367C14.8816 2.72384 16.0315 1.57397 17.4613 1.57397C18.8911 1.57397 20.041 2.73384 20.041 4.15367C20.031 5.5535 18.9311 6.68336 17.5513 6.73336Z" stroke="#64748B" stroke-width="1.5" stroke-linecap="round" stroke-linejoin="round"/>
<path id="Vector_2" d="M16.521 14.0124C17.8908 14.2424 19.4006 14.0024 20.4605 13.2925C21.8703 12.3526 21.8703 10.8128 20.4605 9.87293C19.3906 9.16303 17.8608 8.92305 16.491 9.16302" stroke="#64748B" stroke-width="1.5" stroke-linecap="round" stroke-linejoin="round"/>
<path id="Vector_3" d="M5.5212 6.73336C5.58119 6.72336 5.65118 6.72336 5.71117 6.73336C7.09101 6.68336 8.19088 5.5535 8.19088 4.15367C8.19088 2.72384 7.04101 1.57397 5.61118 1.57397C4.18136 1.57397 3.03149 2.73384 3.03149 4.15367C3.04149 5.5535 4.14136 6.68336 5.5212 6.73336Z" stroke="#64748B" stroke-width="1.5" stroke-linecap="round" stroke-linejoin="round"/>
<path id="Vector_4" d="M6.55208 14.0124C5.18224 14.2424 3.67242 14.0024 2.61255 13.2925C1.20272 12.3526 1.20272 10.8128 2.61255 9.87293C3.68242 9.16303 5.21224 8.92305 6.58207 9.16302" stroke="#64748B" stroke-width="1.5" stroke-linecap="round" stroke-linejoin="round"/>
<path id="Vector_5" d="M11.552 14.2024C11.492 14.1924 11.422 14.1924 11.362 14.2024C9.98221 14.1524 8.88232 13.0225 8.88232 11.6227C8.88232 10.1929 10.0322 9.04297 11.462 9.04297C12.8919 9.04297 14.0417 10.2029 14.0417 11.6227C14.0317 13.0225 12.9319 14.1624 11.552 14.2024Z" stroke="#64748B" stroke-width="1.5" stroke-linecap="round" stroke-linejoin="round"/>
<path id="Vector_6" d="M14.4624 17.3519C12.8726 16.292 10.2429 16.292 8.64307 17.3519C7.23324 18.2918 7.23324 19.8316 8.64307 20.7715C10.2429 21.8414 12.8626 21.8414 14.4624 20.7715" stroke="#64748B" stroke-width="1.5" stroke-linecap="round" stroke-linejoin="round"/>
</g>
</g>
</svg>
