<svg width="33" height="33" viewBox="0 0 33 33" fill="none" xmlns="http://www.w3.org/2000/svg">
<g id="ph:github-logo" clip-path="url(#clip0_319_977)">
<path id="Vector" d="M26.8002 9.66851C27.1059 8.68251 27.2039 7.64387 27.0882 6.61808C26.9724 5.59229 26.6454 4.60161 26.1277 3.70851C26.0399 3.55646 25.9137 3.4302 25.7616 3.34243C25.6095 3.25466 25.437 3.20847 25.2615 3.20851C24.0967 3.20607 22.9475 3.47609 21.9057 3.99699C20.8639 4.51789 19.9584 5.27524 19.2615 6.20851H16.2615C15.5646 5.27524 14.659 4.51789 13.6172 3.99699C12.5754 3.47609 11.4262 3.20607 10.2615 3.20851C10.0859 3.20847 9.91341 3.25466 9.76135 3.34243C9.60928 3.4302 9.48301 3.55646 9.39522 3.70851C8.87753 4.60161 8.55051 5.59229 8.43476 6.61808C8.31902 7.64387 8.41706 8.68251 8.72272 9.66851C8.10488 10.7469 7.77393 11.9657 7.76147 13.2085V14.2085C7.76358 15.9005 8.37781 17.5346 9.49075 18.8091C10.6037 20.0835 12.1402 20.9123 13.8165 21.1423C13.1322 22.0178 12.7608 23.0973 12.7615 24.2085V25.2085H9.76147C8.96583 25.2085 8.20276 24.8924 7.64015 24.3298C7.07755 23.7672 6.76147 23.0042 6.76147 22.2085C6.76147 21.5519 6.63215 20.9017 6.38087 20.2951C6.1296 19.6885 5.7613 19.1373 5.29701 18.673C4.83272 18.2087 4.28152 17.8404 3.67489 17.5891C3.06826 17.3378 2.41808 17.2085 1.76147 17.2085C1.49626 17.2085 1.2419 17.3139 1.05437 17.5014C0.866831 17.6889 0.761475 17.9433 0.761475 18.2085C0.761475 18.4737 0.866831 18.7281 1.05437 18.9156C1.2419 19.1032 1.49626 19.2085 1.76147 19.2085C2.55712 19.2085 3.32019 19.5246 3.88279 20.0872C4.4454 20.6498 4.76147 21.4129 4.76147 22.2085C4.76147 23.5346 5.28826 24.8064 6.22594 25.744C7.16362 26.6817 8.43539 27.2085 9.76147 27.2085H12.7615V29.2085C12.7615 29.4737 12.8668 29.7281 13.0544 29.9156C13.2419 30.1032 13.4963 30.2085 13.7615 30.2085C14.0267 30.2085 14.281 30.1032 14.4686 29.9156C14.6561 29.7281 14.7615 29.4737 14.7615 29.2085V24.2085C14.7615 23.4129 15.0775 22.6498 15.6402 22.0872C16.2028 21.5246 16.9658 21.2085 17.7615 21.2085C18.5571 21.2085 19.3202 21.5246 19.8828 22.0872C20.4454 22.6498 20.7615 23.4129 20.7615 24.2085V29.2085C20.7615 29.4737 20.8668 29.7281 21.0544 29.9156C21.2419 30.1032 21.4963 30.2085 21.7615 30.2085C22.0267 30.2085 22.281 30.1032 22.4686 29.9156C22.6561 29.7281 22.7615 29.4737 22.7615 29.2085V24.2085C22.7621 23.0973 22.3907 22.0178 21.7065 21.1423C23.3828 20.9123 24.9193 20.0835 26.0322 18.8091C27.1451 17.5346 27.7594 15.9005 27.7615 14.2085V13.2085C27.749 11.9657 27.4181 10.7469 26.8002 9.66851ZM25.7615 14.2085C25.7615 15.5346 25.2347 16.8064 24.297 17.744C23.3593 18.6817 22.0876 19.2085 20.7615 19.2085H14.7615C13.4354 19.2085 12.1636 18.6817 11.2259 17.744C10.2883 16.8064 9.76147 15.5346 9.76147 14.2085V13.2085C9.77374 12.2085 10.0731 11.2332 10.624 10.3985C10.7267 10.2632 10.7932 10.1039 10.8172 9.9357C10.8413 9.76751 10.8221 9.59597 10.7615 9.43726C10.501 8.76551 10.3756 8.04896 10.3926 7.32867C10.4095 6.60839 10.5685 5.89852 10.8602 5.23976C11.6786 5.3278 12.4667 5.59891 13.1661 6.03298C13.8654 6.46705 14.4581 7.05295 14.9002 7.74726C14.9903 7.88814 15.1143 8.00418 15.2608 8.08476C15.4074 8.16534 15.5718 8.20789 15.739 8.20851H19.7827C19.9506 8.20852 20.1157 8.16627 20.263 8.08566C20.4102 8.00505 20.5348 7.88868 20.6252 7.74726C21.0673 7.05289 21.6599 6.46694 22.3593 6.03286C23.0587 5.59878 23.8468 5.32771 24.6652 5.23976C24.9566 5.89869 25.1151 6.60864 25.1316 7.32892C25.1481 8.04921 25.0223 8.76567 24.7615 9.43726C24.701 9.59446 24.6808 9.76426 24.7026 9.93125C24.7245 10.0982 24.7877 10.2571 24.8865 10.3935C25.4428 11.2282 25.7466 12.2056 25.7615 13.2085V14.2085Z" fill="url(#paint0_linear_319_977)"/>
</g>
<defs>
<linearGradient id="paint0_linear_319_977" x1="11.599" y1="3.2085" x2="42.5869" y2="11.9964" gradientUnits="userSpaceOnUse">
<stop stop-color="#581C87"/>
<stop offset="0.339479" stop-color="#7E22CE"/>
<stop offset="0.782214" stop-color="#A78BFA"/>
<stop offset="0.9999" stop-color="#652F9A"/>
<stop offset="1" stop-color="#A78BFA"/>
</linearGradient>
<clipPath id="clip0_319_977">
<rect width="32" height="32" fill="white" transform="translate(0.761475 0.208496)"/>
</clipPath>
</defs>
</svg>
