<svg width="20" height="20" viewBox="0 0 20 20" fill="none" xmlns="http://www.w3.org/2000/svg">
<g id="icon-design" clip-path="url(#clip0_324_197)">
<path id="Vector" d="M19.2858 10.5L10.5715 14.5143C10.3854 14.5992 10.1832 14.6431 9.97864 14.6431C9.77408 14.6431 9.5719 14.5992 9.38579 14.5143L0.714355 10.5M19.2858 15.1429L10.5715 19.1571C10.3854 19.242 10.1832 19.286 9.97864 19.286C9.77408 19.286 9.5719 19.242 9.38579 19.1571L0.714355 15.1429M10.6715 9.85714C10.4596 9.94915 10.2311 9.99663 10.0001 9.99663C9.76907 9.99663 9.54053 9.94915 9.32864 9.85714L1.18578 6.08571C1.05356 6.01902 0.942438 5.91693 0.864801 5.79082C0.787164 5.66471 0.746056 5.51952 0.746056 5.37142C0.746056 5.22333 0.787164 5.07814 0.864801 4.95203C0.942438 4.82592 1.05356 4.72383 1.18578 4.65714L9.32864 0.857139C9.54053 0.76513 9.76907 0.717651 10.0001 0.717651C10.2311 0.717651 10.4596 0.76513 10.6715 0.857139L18.8144 4.62857C18.9466 4.69526 19.0577 4.79735 19.1353 4.92346C19.213 5.04957 19.2541 5.19476 19.2541 5.34285C19.2541 5.49095 19.213 5.63613 19.1353 5.76225C19.0577 5.88836 18.9466 5.99045 18.8144 6.05714L10.6715 9.85714Z" stroke="#64748B" stroke-width="1.5" stroke-linecap="round" stroke-linejoin="round"/>
</g>
<defs>
<clipPath id="clip0_324_197">
<rect width="20" height="20" fill="white"/>
</clipPath>
</defs>
</svg>
