<svg width="20" height="23" viewBox="0 0 20 23" fill="none" xmlns="http://www.w3.org/2000/svg">
<g id="icon-seo">
<g id="Group">
<path id="Vector" d="M0.963379 21.3694H18.9634" stroke="#64748B" stroke-width="1.5" stroke-linecap="round" stroke-linejoin="round"/>
<path id="Vector_2" d="M3.56336 7.74927H1.96338C1.41338 7.74927 0.963379 8.19927 0.963379 8.74927V17.3693C0.963379 17.9193 1.41338 18.3693 1.96338 18.3693H3.56336C4.11336 18.3693 4.56336 17.9193 4.56336 17.3693V8.74927C4.56336 8.19927 4.11336 7.74927 3.56336 7.74927Z" stroke="#64748B" stroke-width="1.5" stroke-linecap="round" stroke-linejoin="round"/>
<path id="Vector_3" d="M10.7635 4.55939H9.16357C8.61357 4.55939 8.16357 5.00939 8.16357 5.55939V17.3693C8.16357 17.9193 8.61357 18.3693 9.16357 18.3693H10.7635C11.3135 18.3693 11.7635 17.9193 11.7635 17.3693V5.55939C11.7635 5.00939 11.3135 4.55939 10.7635 4.55939Z" stroke="#64748B" stroke-width="1.5" stroke-linecap="round" stroke-linejoin="round"/>
<path id="Vector_4" d="M17.9633 1.36938H16.3633C15.8133 1.36938 15.3633 1.81938 15.3633 2.36938V17.3694C15.3633 17.9194 15.8133 18.3694 16.3633 18.3694H17.9633C18.5133 18.3694 18.9633 17.9194 18.9633 17.3694V2.36938C18.9633 1.81938 18.5133 1.36938 17.9633 1.36938Z" stroke="#64748B" stroke-width="1.5" stroke-linecap="round" stroke-linejoin="round"/>
</g>
</g>
</svg>
