<svg width="33" height="33" viewBox="0 0 33 33" fill="none" xmlns="http://www.w3.org/2000/svg">
<g id="icon-type">
<g id="tabler:brand-typescript">
<g id="Group">
<path id="Vector" d="M20.7615 23.5418C21.1881 23.9685 21.7668 24.2085 22.3708 24.2085H23.0948C24.0148 24.2085 24.7615 23.4618 24.7615 22.5418V22.2085C24.7615 21.6781 24.5508 21.1694 24.1757 20.7943C23.8006 20.4192 23.2919 20.2085 22.7615 20.2085C22.231 20.2085 21.7223 19.9978 21.3473 19.6227C20.9722 19.2476 20.7615 18.7389 20.7615 18.2085V17.8752C20.7615 16.9552 21.5081 16.2085 22.4281 16.2085H23.1521C23.7561 16.2085 24.3348 16.4485 24.7615 16.8752M12.7615 16.2085H18.0948M15.4281 16.2085V24.2085" stroke="url(#paint0_linear_253_3197)" stroke-width="2" stroke-linecap="round" stroke-linejoin="round"/>
<path id="Vector_2" d="M28.7615 25.5418V6.87516C28.7615 6.16792 28.4805 5.48964 27.9804 4.98954C27.4803 4.48945 26.8021 4.2085 26.0948 4.2085H7.42814C6.7209 4.2085 6.04262 4.48945 5.54252 4.98954C5.04243 5.48964 4.76147 6.16792 4.76147 6.87516V25.5418C4.76147 26.2491 5.04243 26.9274 5.54252 27.4274C6.04262 27.9275 6.7209 28.2085 7.42814 28.2085H26.0948C26.8021 28.2085 27.4803 27.9275 27.9804 27.4274C28.4805 26.9274 28.7615 26.2491 28.7615 25.5418Z" stroke="url(#paint1_linear_253_3197)" stroke-width="2" stroke-linecap="round" stroke-linejoin="round"/>
</g>
</g>
</g>
<defs>
<linearGradient id="paint0_linear_253_3197" x1="17.5782" y1="16.2085" x2="30.1782" y2="21.5684" gradientUnits="userSpaceOnUse">
<stop stop-color="#581C87"/>
<stop offset="0.339479" stop-color="#7E22CE"/>
<stop offset="0.782214" stop-color="#A78BFA"/>
<stop offset="0.9999" stop-color="#652F9A"/>
<stop offset="1" stop-color="#A78BFA"/>
</linearGradient>
<linearGradient id="paint1_linear_253_3197" x1="14.3949" y1="4.2085" x2="41.9396" y2="12.02" gradientUnits="userSpaceOnUse">
<stop stop-color="#581C87"/>
<stop offset="0.339479" stop-color="#7E22CE"/>
<stop offset="0.782214" stop-color="#A78BFA"/>
<stop offset="0.9999" stop-color="#652F9A"/>
<stop offset="1" stop-color="#A78BFA"/>
</linearGradient>
</defs>
</svg>
