<svg width="24" height="29" viewBox="0 0 24 29" fill="none" xmlns="http://www.w3.org/2000/svg">
<g id="icon-scss">
<path id="Vector" d="M12.3801 17.3796L12.885 17.1477C13.733 16.8108 14.6372 16.6368 15.5502 16.6353L15.5523 16.6353C17.725 16.6224 19.1592 17.5728 19.8183 18.7014C19.2011 17.8886 18.086 17.1585 16.2438 16.9417L16.2154 16.9384L16.1869 16.9383C14.5667 16.9334 12.9655 17.2872 11.4983 17.9745L11.4866 17.98L11.4752 17.986C11.1475 18.1607 10.786 18.3759 10.4191 18.5945C10.3158 18.656 10.2121 18.7177 10.1086 18.7789C9.83435 18.93 9.5734 19.1041 9.32859 19.2994L9.0369 19.532L9.17691 19.8779C9.52739 20.7436 9.66362 21.6812 9.57402 22.6108C9.48442 23.5405 9.17164 24.4347 8.66228 25.2176L8.66225 25.2176L8.65935 25.2221C8.06368 26.1597 7.1901 26.8877 6.16058 27.3047C5.13446 27.7203 4.00449 27.8062 2.92749 27.5506C2.73575 27.4926 2.34578 27.1875 2.11726 26.5744C1.8987 25.988 1.8481 25.153 2.30802 24.1352L2.30817 24.1348C2.69688 23.2728 3.71903 22.3677 4.84971 21.5895C5.95627 20.828 7.07293 20.25 7.53784 20.019L7.55116 20.0124L7.56406 20.005C7.61179 19.9777 7.6616 19.9505 7.7224 19.9173C7.7507 19.9018 7.78137 19.8851 7.81533 19.8664L8.44215 19.5216L7.90301 19.0514C7.40176 18.6143 6.7227 18.1463 6.00864 17.6551L5.96849 17.6275C5.2556 17.1372 4.49415 16.6134 3.77123 16.0388C2.28053 14.854 1.06036 13.5329 0.765473 12.0033C0.625796 11.2666 0.952093 9.11959 3.71961 6.52834C6.23924 4.33156 9.16622 2.65161 12.334 1.58409L12.3341 1.58415L12.3418 1.58141C14.848 0.690988 17.4079 0.516693 19.4175 0.947295C21.445 1.38174 22.7871 2.39322 23.1324 3.76899L23.1327 3.77015C23.4979 5.21062 23.0665 6.84167 22.0705 8.31082C21.0772 9.77601 19.5571 11.0237 17.8589 11.681L17.8493 11.6847L17.8399 11.6888C15.7509 12.5976 13.4297 12.8289 11.2026 12.3505C10.9784 12.2882 10.7628 12.2001 10.56 12.0885C10.7249 12.1494 10.8932 12.2017 11.0645 12.245C11.7791 12.4256 12.525 12.4449 13.2479 12.3017C16.3175 11.9503 18.7955 10.5801 20.3684 8.95304C21.1559 8.13833 21.7283 7.2469 22.0259 6.37161C22.3228 5.49824 22.3555 4.60717 22.0044 3.83898C21.7379 3.25232 21.184 2.80667 20.4892 2.50418C19.7879 2.19892 18.8976 2.01785 17.872 1.98662C15.8183 1.92411 13.1598 2.45997 10.2283 3.90478L10.2263 3.90578C6.69682 5.66522 4.78642 7.29374 3.75059 8.66328C2.70097 10.051 2.57148 11.1444 2.53715 11.7584L2.53712 11.7589C2.44151 13.5049 3.53133 14.7871 4.75589 15.8506C5.22873 16.2613 5.74678 16.66 6.25146 17.0483C6.40447 17.166 6.55625 17.2828 6.70517 17.3987C7.35579 17.9051 7.96143 18.4013 8.45431 18.9279L8.45427 18.928L8.45945 18.9333C8.46485 18.9389 8.47115 18.946 8.48767 18.9644L8.48806 18.9649C8.50116 18.9795 8.52338 19.0044 8.54782 19.0288L8.81226 19.2933L9.14064 19.1143C9.22505 19.0683 9.31125 19.0215 9.39864 18.974C9.70993 18.8048 10.0364 18.6274 10.3512 18.4504C11.4111 17.8687 11.9195 17.5913 12.3801 17.3796ZM8.19707 19.7724L8.04316 19.8662L7.97854 19.9015L7.96938 19.9065L7.96045 19.9119C7.85934 19.9728 7.75912 20.032 7.66482 20.0877C7.51757 20.1747 7.38475 20.2531 7.28554 20.3161C6.36124 20.8823 5.49095 21.5323 4.68568 22.2578L4.68562 22.2577L4.6783 22.2646C3.94847 22.9492 3.4951 23.7796 3.3245 24.5204C3.23947 24.8897 3.21942 25.2602 3.29105 25.5897C3.3629 25.9203 3.53836 26.248 3.87112 26.4387C4.38822 26.7372 5.10484 26.6626 5.73995 26.4363C6.40633 26.1988 7.11769 25.7505 7.71045 25.107C8.34285 24.4498 8.7897 23.6366 9.0054 22.7503C9.22157 21.8621 9.1978 20.9324 8.93651 20.0564L8.75106 19.4346L8.19707 19.7724Z" fill="url(#paint0_linear_253_3184)" stroke="url(#paint1_linear_253_3184)"/>
</g>
<defs>
<linearGradient id="paint0_linear_253_3184" x1="9.68042" y1="0.222168" x2="37.2793" y2="6.80396" gradientUnits="userSpaceOnUse">
<stop stop-color="#581C87"/>
<stop offset="0.339479" stop-color="#7E22CE"/>
<stop offset="0.782214" stop-color="#A78BFA"/>
<stop offset="0.9999" stop-color="#652F9A"/>
<stop offset="1" stop-color="#A78BFA"/>
</linearGradient>
<linearGradient id="paint1_linear_253_3184" x1="9.68042" y1="0.222168" x2="37.2793" y2="6.80396" gradientUnits="userSpaceOnUse">
<stop stop-color="#581C87"/>
<stop offset="0.339479" stop-color="#7E22CE"/>
<stop offset="0.782214" stop-color="#A78BFA"/>
<stop offset="0.9999" stop-color="#652F9A"/>
<stop offset="1" stop-color="#A78BFA"/>
</linearGradient>
</defs>
</svg>
