<svg width="48" height="48" viewBox="0 0 48 48" fill="none" xmlns="http://www.w3.org/2000/svg">
<path d="M29.5214 12.1743L29.5214 12.1743L29.5242 12.1757C30.9252 12.8428 31.9888 13.7793 32.7333 14.9836L32.7332 14.9837L32.7391 14.9927C33.4832 16.1408 33.872 17.4834 33.8917 19.0379C33.8701 19.043 33.8442 19.048 33.8134 19.0525L28.278 19.4028H28.2638C28.2423 18.3869 27.9266 17.5262 27.2761 16.8737C26.6034 16.1751 25.7143 15.8423 24.6628 15.8423C23.6113 15.8423 22.7221 16.1751 22.0495 16.8737C21.3752 17.5501 21.0606 18.4502 21.0606 19.515V27.0943C21.0606 28.142 21.3787 29.0369 22.0459 29.732L22.0459 29.7321L22.0531 29.7393C22.7275 30.4137 23.6156 30.7318 24.6628 30.7318C25.71 30.7318 26.5981 30.4137 27.2725 29.7393L27.2726 29.7393L27.2796 29.732C27.9231 29.0617 28.2419 28.2055 28.2638 27.2057L28.2685 27.2059L33.8342 27.4877C33.8555 27.4892 33.8744 27.4911 33.8913 27.4932C33.8674 29.0367 33.4788 30.3837 32.7368 31.5497L32.7368 31.5497L32.7333 31.5552C31.9881 32.7607 30.9229 33.7098 29.5197 34.4006C28.1426 35.0666 26.528 35.4074 24.6628 35.4074C22.8024 35.4074 21.1788 35.0449 19.7792 34.3344C18.4038 33.6242 17.3352 32.6316 16.5624 31.3526C15.8142 30.0524 15.4331 28.544 15.4331 26.8123V19.6913C15.4331 17.9835 15.814 16.4993 16.5614 15.2231C17.3343 13.9434 18.4032 12.9502 19.779 12.2398C21.1787 11.5292 22.8023 11.1667 24.6628 11.1667C26.5287 11.1667 28.1439 11.5078 29.5214 12.1743ZM28.1468 19.3999C28.1468 19.3998 28.1475 19.4 28.1488 19.4003L28.1468 19.3999Z" fill="url(#paint0_linear_121_604)" stroke="url(#paint1_linear_121_604)"/>
<path d="M48 24C48 37.2548 37.2548 48 24 48C10.7452 48 0 37.2548 0 24C0 10.7452 10.7452 0 24 0C37.2548 0 48 10.7452 48 24ZM3.56064 24C3.56064 35.2883 12.7117 44.4394 24 44.4394C35.2883 44.4394 44.4394 35.2883 44.4394 24C44.4394 12.7117 35.2883 3.56064 24 3.56064C12.7117 3.56064 3.56064 12.7117 3.56064 24Z" fill="url(#paint2_linear_121_604)"/>
<defs>
<linearGradient id="paint0_linear_121_604" x1="22.7439" y1="10.6667" x2="45.7728" y2="15.7016" gradientUnits="userSpaceOnUse">
<stop stop-color="#581C87"/>
<stop offset="0.339479" stop-color="#7E22CE"/>
<stop offset="0.782214" stop-color="#A78BFA"/>
<stop offset="0.9999" stop-color="#652F9A"/>
<stop offset="1" stop-color="#A78BFA"/>
</linearGradient>
<linearGradient id="paint1_linear_121_604" x1="22.7439" y1="10.6667" x2="45.7728" y2="15.7016" gradientUnits="userSpaceOnUse">
<stop stop-color="#581C87"/>
<stop offset="0.339479" stop-color="#7E22CE"/>
<stop offset="0.782214" stop-color="#A78BFA"/>
<stop offset="0.9999" stop-color="#652F9A"/>
<stop offset="1" stop-color="#A78BFA"/>
</linearGradient>
<linearGradient id="paint2_linear_121_604" x1="19.2668" y1="-7.09737e-07" x2="74.3563" y2="15.6229" gradientUnits="userSpaceOnUse">
<stop stop-color="#581C87"/>
<stop offset="0.339479" stop-color="#7E22CE"/>
<stop offset="0.782214" stop-color="#A78BFA"/>
<stop offset="0.9999" stop-color="#652F9A"/>
<stop offset="1" stop-color="#A78BFA"/>
</linearGradient>
</defs>
</svg>
