<svg width="280" height="241" viewBox="0 0 280 241" fill="none" xmlns="http://www.w3.org/2000/svg">
<g opacity="0.08">
<path d="M0.950876 105.884L93.42 77.0975L93.1537 114.962L0.684562 143.748L0.950876 105.884Z" stroke="url(#paint0_linear_324_203)" stroke-width="0.5"/>
<path d="M0.455026 67.8213L93.6681 38.8035L93.4018 76.6678L0.188712 105.686L0.455026 67.8213Z" stroke="url(#paint1_linear_324_203)" stroke-width="0.5"/>
<rect x="0.242136" y="0.174068" width="94.7842" height="37.8652" transform="matrix(0.975575 -0.303703 -0.00703321 0.999975 93.6724 76.8451)" stroke="url(#paint2_linear_324_203)" stroke-width="0.5"/>
<rect x="0.242136" y="0.174068" width="94.7842" height="37.8652" transform="matrix(0.975575 -0.303703 -0.00703321 0.999975 93.6268 38.9054)" stroke="url(#paint3_linear_324_203)" stroke-width="0.5"/>
<rect x="0.242136" y="0.174068" width="94.7842" height="37.8652" transform="matrix(0.975575 -0.303703 -0.00703321 0.999975 0.446103 144.148)" stroke="url(#paint4_linear_324_203)" stroke-width="0.5"/>
<rect x="0.242136" y="0.174068" width="94.7842" height="37.8652" transform="matrix(0.975575 -0.303703 -0.00703321 0.999975 93.4026 115.209)" fill="#141F38" stroke="url(#paint5_linear_324_203)" stroke-width="0.5"/>
<rect x="0.242136" y="0.174068" width="94.7842" height="37.8652" transform="matrix(0.975575 -0.303703 -0.00703321 0.999975 186.36 86.2714)" stroke="url(#paint6_linear_324_203)" stroke-width="0.5"/>
<rect x="0.242136" y="0.174068" width="94.7842" height="37.8652" transform="matrix(0.975575 -0.303703 -0.00703321 0.999975 187.627 47.9054)" stroke="url(#paint7_linear_324_203)" stroke-width="0.5"/>
<rect x="0.242136" y="0.174068" width="94.7842" height="37.8652" transform="matrix(0.975575 -0.303703 -0.00703321 0.999975 0.176084 182.512)" stroke="url(#paint8_linear_324_203)" stroke-width="0.5"/>
<rect x="0.242136" y="0.174068" width="94.7842" height="37.8652" transform="matrix(0.975575 -0.303703 -0.00703321 0.999975 93.1329 153.574)" stroke="url(#paint9_linear_324_203)" stroke-width="0.5"/>
<rect x="0.242136" y="0.174068" width="94.7842" height="37.8652" transform="matrix(0.975575 -0.303703 -0.00703321 0.999975 186.09 124.636)" stroke="url(#paint10_linear_324_203)" stroke-width="0.5"/>
<rect x="0.242136" y="0.174068" width="94.7842" height="37.8652" transform="matrix(0.975575 -0.303703 -0.00703321 0.999975 92.8631 191.938)" stroke="url(#paint11_linear_324_203)" stroke-width="0.5"/>
<rect x="0.242136" y="0.174068" width="94.7842" height="37.8652" transform="matrix(0.975575 -0.303703 -0.00703321 0.999975 185.82 163)" fill="#141F38" stroke="url(#paint12_linear_324_203)" stroke-width="0.5"/>
</g>
<defs>
<linearGradient id="paint0_linear_324_203" x1="38.0208" y1="94.0942" x2="109.419" y2="134.923" gradientUnits="userSpaceOnUse">
<stop stop-color="#581C87"/>
<stop offset="0.339479" stop-color="#7E22CE"/>
<stop offset="0.782214" stop-color="#A78BFA"/>
<stop offset="0.9999" stop-color="#652F9A"/>
<stop offset="1" stop-color="#A78BFA"/>
</linearGradient>
<linearGradient id="paint1_linear_324_203" x1="37.8235" y1="55.9388" x2="109.462" y2="97.1716" gradientUnits="userSpaceOnUse">
<stop stop-color="#581C87"/>
<stop offset="0.339479" stop-color="#7E22CE"/>
<stop offset="0.782214" stop-color="#A78BFA"/>
<stop offset="0.9999" stop-color="#652F9A"/>
<stop offset="1" stop-color="#A78BFA"/>
</linearGradient>
<linearGradient id="paint2_linear_324_203" x1="38.2462" y1="-5.67275e-07" x2="117.221" y2="55.6243" gradientUnits="userSpaceOnUse">
<stop stop-color="#581C87"/>
<stop offset="0.339479" stop-color="#7E22CE"/>
<stop offset="0.782214" stop-color="#A78BFA"/>
<stop offset="0.9999" stop-color="#652F9A"/>
<stop offset="1" stop-color="#A78BFA"/>
</linearGradient>
<linearGradient id="paint3_linear_324_203" x1="38.2462" y1="-5.67275e-07" x2="117.221" y2="55.6243" gradientUnits="userSpaceOnUse">
<stop stop-color="#581C87"/>
<stop offset="0.339479" stop-color="#7E22CE"/>
<stop offset="0.782214" stop-color="#A78BFA"/>
<stop offset="0.9999" stop-color="#652F9A"/>
<stop offset="1" stop-color="#A78BFA"/>
</linearGradient>
<linearGradient id="paint4_linear_324_203" x1="38.2462" y1="-5.67275e-07" x2="117.221" y2="55.6243" gradientUnits="userSpaceOnUse">
<stop stop-color="#581C87"/>
<stop offset="0.339479" stop-color="#7E22CE"/>
<stop offset="0.782214" stop-color="#A78BFA"/>
<stop offset="0.9999" stop-color="#652F9A"/>
<stop offset="1" stop-color="#A78BFA"/>
</linearGradient>
<linearGradient id="paint5_linear_324_203" x1="38.2462" y1="-5.67275e-07" x2="117.221" y2="55.6243" gradientUnits="userSpaceOnUse">
<stop stop-color="#581C87"/>
<stop offset="0.339479" stop-color="#7E22CE"/>
<stop offset="0.782214" stop-color="#A78BFA"/>
<stop offset="0.9999" stop-color="#652F9A"/>
<stop offset="1" stop-color="#A78BFA"/>
</linearGradient>
<linearGradient id="paint6_linear_324_203" x1="38.2462" y1="-5.67275e-07" x2="117.221" y2="55.6243" gradientUnits="userSpaceOnUse">
<stop stop-color="#581C87"/>
<stop offset="0.339479" stop-color="#7E22CE"/>
<stop offset="0.782214" stop-color="#A78BFA"/>
<stop offset="0.9999" stop-color="#652F9A"/>
<stop offset="1" stop-color="#A78BFA"/>
</linearGradient>
<linearGradient id="paint7_linear_324_203" x1="38.2462" y1="-5.67275e-07" x2="117.221" y2="55.6243" gradientUnits="userSpaceOnUse">
<stop stop-color="#581C87"/>
<stop offset="0.339479" stop-color="#7E22CE"/>
<stop offset="0.782214" stop-color="#A78BFA"/>
<stop offset="0.9999" stop-color="#652F9A"/>
<stop offset="1" stop-color="#A78BFA"/>
</linearGradient>
<linearGradient id="paint8_linear_324_203" x1="38.2462" y1="-5.67275e-07" x2="117.221" y2="55.6243" gradientUnits="userSpaceOnUse">
<stop stop-color="#581C87"/>
<stop offset="0.339479" stop-color="#7E22CE"/>
<stop offset="0.782214" stop-color="#A78BFA"/>
<stop offset="0.9999" stop-color="#652F9A"/>
<stop offset="1" stop-color="#A78BFA"/>
</linearGradient>
<linearGradient id="paint9_linear_324_203" x1="38.2462" y1="-5.67275e-07" x2="117.221" y2="55.6243" gradientUnits="userSpaceOnUse">
<stop stop-color="#581C87"/>
<stop offset="0.339479" stop-color="#7E22CE"/>
<stop offset="0.782214" stop-color="#A78BFA"/>
<stop offset="0.9999" stop-color="#652F9A"/>
<stop offset="1" stop-color="#A78BFA"/>
</linearGradient>
<linearGradient id="paint10_linear_324_203" x1="38.2462" y1="-5.67275e-07" x2="117.221" y2="55.6243" gradientUnits="userSpaceOnUse">
<stop stop-color="#581C87"/>
<stop offset="0.339479" stop-color="#7E22CE"/>
<stop offset="0.782214" stop-color="#A78BFA"/>
<stop offset="0.9999" stop-color="#652F9A"/>
<stop offset="1" stop-color="#A78BFA"/>
</linearGradient>
<linearGradient id="paint11_linear_324_203" x1="38.2462" y1="-5.67275e-07" x2="117.221" y2="55.6243" gradientUnits="userSpaceOnUse">
<stop stop-color="#581C87"/>
<stop offset="0.339479" stop-color="#7E22CE"/>
<stop offset="0.782214" stop-color="#A78BFA"/>
<stop offset="0.9999" stop-color="#652F9A"/>
<stop offset="1" stop-color="#A78BFA"/>
</linearGradient>
<linearGradient id="paint12_linear_324_203" x1="38.2462" y1="-5.67275e-07" x2="117.221" y2="55.6243" gradientUnits="userSpaceOnUse">
<stop stop-color="#581C87"/>
<stop offset="0.339479" stop-color="#7E22CE"/>
<stop offset="0.782214" stop-color="#A78BFA"/>
<stop offset="0.9999" stop-color="#652F9A"/>
<stop offset="1" stop-color="#A78BFA"/>
</linearGradient>
</defs>
</svg>
