<svg width="232" height="209" viewBox="0 0 232 209" fill="none" xmlns="http://www.w3.org/2000/svg">
<g id="Rocket">
<g id="line-1">
<path id="Ellipse 68" d="M200.118 145.357C200.118 158.367 191.019 170.238 176.105 178.886C161.203 187.526 140.584 192.885 117.781 192.885C94.9777 192.885 74.358 187.526 59.4563 178.886C44.5417 170.238 35.4429 158.367 35.4429 145.357C35.4429 132.348 44.5417 120.476 59.4563 111.828C74.358 103.188 94.9777 97.8286 117.781 97.8286C140.584 97.8286 161.203 103.188 176.105 111.828C191.019 120.476 200.118 132.348 200.118 145.357Z" stroke="#32345C" stroke-opacity="0.5"/>
</g>
<g id="line-2">
<path id="Ellipse 69" d="M225.607 145.357C225.607 162.447 213.655 178.014 194.128 189.335C174.614 200.65 147.622 207.664 117.781 207.664C87.9395 207.664 60.9477 200.65 41.4334 189.335C21.9063 178.014 9.95459 162.447 9.95459 145.357C9.95459 128.267 21.9063 112.7 41.4334 101.379C60.9477 90.0647 87.9395 83.0508 117.781 83.0508C147.622 83.0508 174.614 90.0647 194.128 101.379C213.655 112.7 225.607 128.267 225.607 145.357Z" stroke="#32345C" stroke-opacity="0.5"/>
</g>
<path id="Ellipse 64" d="M155.602 167.179C134.645 179.205 100.666 179.205 79.7088 167.179C58.7514 155.153 58.7515 135.654 79.7088 123.628C100.666 111.602 134.645 111.602 155.602 123.628C176.56 135.654 176.56 155.153 155.602 167.179Z" stroke="#32345C" stroke-opacity="0.5"/>
<path id="Vector"  class="Vector" d="M153.964 127.044L136.299 119.836C139.502 112.791 141.734 105.42 143.19 97.9824L153.964 127.044ZM98.3808 119.836L80.7159 127.044L91.4896 97.9824C92.9455 105.42 95.1778 112.791 98.3808 119.836ZM114.816 47.494C115.722 46.5766 116.531 45.7575 117.372 45.2333C122.419 49.2304 131.058 59.2233 131.058 80.7161C131.09 91.8884 128.761 102.831 124.199 113.152L110.449 113.316C105.951 102.733 103.622 91.7901 103.622 80.7161C103.622 62.6307 109.704 52.6706 114.816 47.494ZM108.346 40.9413C101.94 47.4284 94.4661 59.5181 94.4661 80.7488C94.4661 95.0992 98.0249 107.287 102.101 116.985C103.622 120.36 106.89 122.424 110.481 122.457L124.231 122.424C126.69 122.424 129.084 121.507 130.799 119.77C131.543 119.017 132.125 118.034 132.578 116.985C137.62 105.587 140.222 93.2379 140.214 80.7488C140.214 43.6606 117.34 34.3886 117.34 34.3886C117.34 34.3886 113.134 36.0923 108.346 40.9413ZM117.34 80.7161C112.293 80.7161 108.184 76.5551 108.184 71.444C108.184 66.3329 112.293 62.172 117.34 62.172C122.355 62.2047 126.496 66.3329 126.496 71.444C126.496 76.5551 122.387 80.7161 117.34 80.7161ZM131.058 148.995L131.058 125.143C129.666 125.962 128.113 126.552 126.463 126.847L126.496 153.615L131.058 148.995ZM117.34 162.887L121.902 158.267L121.934 127.044L112.778 127.076L112.778 158.267L117.34 162.887ZM108.184 153.615L108.216 126.847C106.566 126.552 105.046 125.995 103.622 125.143L103.622 148.995L108.184 153.615Z" fill="url(#paint0_linear_87_892)"/>
<circle id="Ellipse 71" cx="220" cy="12" r="12" fill="url(#paint1_radial_87_892)"/>
<circle id="Ellipse 72" cx="8" cy="197" r="8" fill="url(#paint2_radial_87_892)"/>
</g>
<defs>
<linearGradient id="paint0_linear_87_892" x1="118.431" y1="30.82" x2="51.2278" y2="97.1816" gradientUnits="userSpaceOnUse">
<stop stop-color="#7C3AED"/>
<stop offset="0.21875" stop-color="#7C3AED" stop-opacity="0.8"/>
<stop offset="0.421875" stop-color="#7C3AED" stop-opacity="0.6"/>
<stop offset="0.585542" stop-color="#7C3AED" stop-opacity="0.4"/>
<stop offset="0.776042" stop-color="#7C3AED" stop-opacity="0.2"/>
<stop offset="0.9932" stop-color="#7C3AED" stop-opacity="0.1"/>
</linearGradient>
<radialGradient id="paint1_radial_87_892" cx="0" cy="0" r="1" gradientUnits="userSpaceOnUse" gradientTransform="translate(225.535 2.12448) rotate(123.849) scale(21.9834 35.137)">
<stop stop-color="#C4B5FD"/>
<stop offset="0.46875" stop-color="#4C1D95"/>
<stop offset="0.880208" stop-color="#7C3AED"/>
</radialGradient>
<radialGradient id="paint2_radial_87_892" cx="0" cy="0" r="1" gradientUnits="userSpaceOnUse" gradientTransform="translate(11.6903 190.416) rotate(123.849) scale(14.6556 23.4247)">
<stop stop-color="#C4B5FD"/>
<stop offset="0.46875" stop-color="#4C1D95"/>
<stop offset="0.880208" stop-color="#7C3AED"/>
</radialGradient>
</defs>
</svg>
