<svg width="759" height="344" viewBox="0 0 759 344" fill="none" xmlns="http://www.w3.org/2000/svg">
<g id="stars">
<path id="Vector" d="M77.1216 179.946C77.3832 179.946 77.5952 179.766 77.5952 179.543C77.5952 179.321 77.3832 179.14 77.1216 179.14C76.86 179.14 76.6479 179.321 76.6479 179.543C76.6479 179.766 76.86 179.946 77.1216 179.946Z" fill="white"/>
<path id="Vector_2" d="M151.634 295.292C151.895 295.292 152.107 295.111 152.107 294.888C152.107 294.666 151.895 294.485 151.634 294.485C151.372 294.485 151.16 294.666 151.16 294.888C151.16 295.111 151.372 295.292 151.634 295.292Z" fill="white"/>
<path id="Vector_3" d="M50.8621 222.784C51.1237 222.784 51.3357 222.603 51.3357 222.381C51.3357 222.158 51.1237 221.978 50.8621 221.978C50.6005 221.978 50.3884 222.158 50.3884 222.381C50.3884 222.603 50.6005 222.784 50.8621 222.784Z" fill="white"/>
<path id="Vector_4" d="M150.794 204.244C151.056 204.244 151.268 204.063 151.268 203.841C151.268 203.618 151.056 203.438 150.794 203.438C150.533 203.438 150.321 203.618 150.321 203.841C150.321 204.063 150.533 204.244 150.794 204.244Z" fill="white"/>
<path id="Vector_5" d="M297.126 88.6544C297.388 88.6544 297.6 88.4739 297.6 88.2513C297.6 88.0286 297.388 87.8481 297.126 87.8481C296.864 87.8481 296.652 88.0286 296.652 88.2513C296.652 88.4739 296.864 88.6544 297.126 88.6544Z" fill="white"/>
<path id="Vector_6" d="M81.3118 272.406C81.5734 272.406 81.7854 272.225 81.7854 272.003C81.7854 271.78 81.5734 271.6 81.3118 271.6C81.0502 271.6 80.8381 271.78 80.8381 272.003C80.8381 272.225 81.0502 272.406 81.3118 272.406Z" fill="white"/>
<path id="Vector_7" d="M488.614 253.859C488.876 253.859 489.088 253.679 489.088 253.456C489.088 253.233 488.876 253.053 488.614 253.053C488.353 253.053 488.141 253.233 488.141 253.456C488.141 253.679 488.353 253.859 488.614 253.859Z" fill="white"/>
<path id="Vector_8" d="M98.177 224.532C98.4386 224.532 98.6507 224.351 98.6507 224.129C98.6507 223.906 98.4386 223.726 98.177 223.726C97.9154 223.726 97.7034 223.906 97.7034 224.129C97.7034 224.351 97.9154 224.532 98.177 224.532Z" fill="white"/>
<path id="Vector_9" d="M124.393 198.119C124.655 198.119 124.867 197.939 124.867 197.716C124.867 197.493 124.655 197.313 124.393 197.313C124.131 197.313 123.919 197.493 123.919 197.716C123.919 197.939 124.131 198.119 124.393 198.119Z" fill="white"/>
<path id="Vector_10" d="M149.903 93.4371C150.165 93.4371 150.377 93.2566 150.377 93.034C150.377 92.8113 150.165 92.6309 149.903 92.6309C149.642 92.6309 149.43 92.8113 149.43 93.034C149.43 93.2566 149.642 93.4371 149.903 93.4371Z" fill="white"/>
<path id="Vector_11" d="M259.76 258.203C260.021 258.203 260.233 258.022 260.233 257.8C260.233 257.577 260.021 257.396 259.76 257.396C259.498 257.396 259.286 257.577 259.286 257.8C259.286 258.022 259.498 258.203 259.76 258.203Z" fill="white"/>
<path id="Vector_12" d="M1.33985 50.8204C1.60144 50.8204 1.81349 50.6399 1.81349 50.4173C1.81349 50.1946 1.60144 50.0142 1.33985 50.0142C1.07827 50.0142 0.866211 50.1946 0.866211 50.4173C0.866211 50.6399 1.07827 50.8204 1.33985 50.8204Z" fill="white"/>
<path id="Vector_13" d="M204.074 329.632C204.336 329.632 204.548 329.451 204.548 329.229C204.548 329.006 204.336 328.826 204.074 328.826C203.813 328.826 203.601 329.006 203.601 329.229C203.601 329.451 203.813 329.632 204.074 329.632Z" fill="white"/>
<path id="Vector_14" d="M260.842 328.717C261.103 328.717 261.315 328.537 261.315 328.314C261.315 328.092 261.103 327.911 260.842 327.911C260.58 327.911 260.368 328.092 260.368 328.314C260.368 328.537 260.58 328.717 260.842 328.717Z" fill="white"/>
<path id="Vector_15" d="M83.9224 91.2105C84.184 91.2105 84.396 91.0301 84.396 90.8074C84.396 90.5848 84.184 90.4043 83.9224 90.4043C83.6608 90.4043 83.4487 90.5848 83.4487 90.8074C83.4487 91.0301 83.6608 91.2105 83.9224 91.2105Z" fill="white"/>
<path id="Vector_16" d="M145.147 57.1944C145.408 57.1944 145.62 57.0139 145.62 56.7913C145.62 56.5687 145.408 56.3882 145.147 56.3882C144.885 56.3882 144.673 56.5687 144.673 56.7913C144.673 57.0139 144.885 57.1944 145.147 57.1944Z" fill="white"/>
<path id="Vector_17" d="M111.088 330.091C111.35 330.091 111.562 329.91 111.562 329.688C111.562 329.465 111.35 329.285 111.088 329.285C110.827 329.285 110.615 329.465 110.615 329.688C110.615 329.91 110.827 330.091 111.088 330.091Z" fill="white"/>
<path id="Vector_18" d="M350.044 323.68C350.306 323.68 350.518 323.5 350.518 323.277C350.518 323.055 350.306 322.874 350.044 322.874C349.782 322.874 349.57 323.055 349.57 323.277C349.57 323.5 349.782 323.68 350.044 323.68Z" fill="white"/>
<path id="Vector_19" d="M55.0361 109.339C55.2977 109.339 55.5098 109.159 55.5098 108.936C55.5098 108.714 55.2977 108.533 55.0361 108.533C54.7746 108.533 54.5625 108.714 54.5625 108.936C54.5625 109.159 54.7746 109.339 55.0361 109.339Z" fill="white"/>
<path id="Vector_20" d="M31.614 315.896C31.8756 315.896 32.0877 315.715 32.0877 315.492C32.0877 315.27 31.8756 315.089 31.614 315.089C31.3524 315.089 31.1404 315.27 31.1404 315.492C31.1404 315.715 31.3524 315.896 31.614 315.896Z" fill="white"/>
<path id="Vector_21" d="M15.5476 286.553C15.8092 286.553 16.0213 286.373 16.0213 286.15C16.0213 285.928 15.8092 285.747 15.5476 285.747C15.286 285.747 15.074 285.928 15.074 286.15C15.074 286.373 15.286 286.553 15.5476 286.553Z" fill="white"/>
<path id="Vector_22" d="M205.697 76.8829C205.959 76.8829 206.171 76.7024 206.171 76.4798C206.171 76.2571 205.959 76.0767 205.697 76.0767C205.436 76.0767 205.224 76.2571 205.224 76.4798C205.224 76.7024 205.436 76.8829 205.697 76.8829Z" fill="white"/>
<path id="Vector_23" d="M261.923 59.4845C262.184 59.4845 262.396 59.304 262.396 59.0813C262.396 58.8587 262.184 58.6782 261.923 58.6782C261.661 58.6782 261.449 58.8587 261.449 59.0813C261.449 59.304 261.661 59.4845 261.923 59.4845Z" fill="white"/>
<path id="Vector_24" d="M27.8311 160.216C28.0926 160.216 28.3047 160.036 28.3047 159.813C28.3047 159.591 28.0926 159.41 27.8311 159.41C27.5695 159.41 27.3574 159.591 27.3574 159.813C27.3574 160.036 27.5695 160.216 27.8311 160.216Z" fill="white"/>
<path id="Vector_25" d="M45.4605 32.7394C45.722 32.7394 45.9341 32.5589 45.9341 32.3362C45.9341 32.1136 45.722 31.9331 45.4605 31.9331C45.1989 31.9331 44.9868 32.1136 44.9868 32.3362C44.9868 32.5589 45.1989 32.7394 45.4605 32.7394Z" fill="white"/>
<path id="Vector_26" d="M390.592 99.7765C390.853 99.7765 391.065 99.596 391.065 99.3733C391.065 99.1507 390.853 98.9702 390.592 98.9702C390.33 98.9702 390.118 99.1507 390.118 99.3733C390.118 99.596 390.33 99.7765 390.592 99.7765Z" fill="white"/>
<path id="Vector_27" d="M259.76 28.8058C260.021 28.8058 260.233 28.6253 260.233 28.4026C260.233 28.18 260.021 27.9995 259.76 27.9995C259.498 27.9995 259.286 28.18 259.286 28.4026C259.286 28.6253 259.498 28.8058 259.76 28.8058Z" fill="white"/>
<path id="Vector_28" d="M606.486 292.823C606.747 292.823 606.959 292.643 606.959 292.42C606.959 292.198 606.747 292.017 606.486 292.017C606.224 292.017 606.012 292.198 606.012 292.42C606.012 292.643 606.224 292.823 606.486 292.823Z" fill="white"/>
<path id="Vector_29" d="M269.955 177.35C270.216 177.35 270.428 177.169 270.428 176.947C270.428 176.724 270.216 176.543 269.955 176.543C269.693 176.543 269.481 176.724 269.481 176.947C269.481 177.169 269.693 177.35 269.955 177.35Z" fill="white"/>
<path id="Vector_30" d="M331.481 178.648C331.743 178.648 331.955 178.467 331.955 178.244C331.955 178.022 331.743 177.841 331.481 177.841C331.22 177.841 331.008 178.022 331.008 178.244C331.008 178.467 331.22 178.648 331.481 178.648Z" fill="white"/>
<path id="Vector_31" d="M188.17 160.474C188.432 160.474 188.644 160.294 188.644 160.071C188.644 159.848 188.432 159.668 188.17 159.668C187.909 159.668 187.697 159.848 187.697 160.071C187.697 160.294 187.909 160.474 188.17 160.474Z" fill="white"/>
<path id="Vector_32" d="M113.192 32.3502C113.453 32.3502 113.666 32.1697 113.666 31.9471C113.666 31.7244 113.453 31.5439 113.192 31.5439C112.93 31.5439 112.718 31.7244 112.718 31.9471C112.718 32.1697 112.93 32.3502 113.192 32.3502Z" fill="white"/>
<path id="Vector_33" d="M524.096 239.258C524.357 239.258 524.569 239.078 524.569 238.855C524.569 238.633 524.357 238.452 524.096 238.452C523.834 238.452 523.622 238.633 523.622 238.855C523.622 239.078 523.834 239.258 524.096 239.258Z" fill="white"/>
<path id="Vector_34" d="M669.894 160.083C670.156 160.083 670.368 159.902 670.368 159.679C670.368 159.457 670.156 159.276 669.894 159.276C669.633 159.276 669.421 159.457 669.421 159.679C669.421 159.902 669.633 160.083 669.894 160.083Z" fill="white"/>
<path id="Vector_35" d="M743.284 139.912C743.546 139.912 743.758 139.731 743.758 139.509C743.758 139.286 743.546 139.105 743.284 139.105C743.023 139.105 742.811 139.286 742.811 139.509C742.811 139.731 743.023 139.912 743.284 139.912Z" fill="white"/>
<path id="Vector_36" d="M634.955 333.754C635.217 333.754 635.429 333.574 635.429 333.351C635.429 333.128 635.217 332.948 634.955 332.948C634.693 332.948 634.481 333.128 634.481 333.351C634.481 333.574 634.693 333.754 634.955 333.754Z" fill="white"/>
<path id="Vector_37" d="M666.685 135.051C666.947 135.051 667.159 134.87 667.159 134.648C667.159 134.425 666.947 134.245 666.685 134.245C666.424 134.245 666.211 134.425 666.211 134.648C666.211 134.87 666.424 135.051 666.685 135.051Z" fill="white"/>
<path id="Vector_38" d="M735.395 179.038C735.656 179.038 735.868 178.857 735.868 178.635C735.868 178.412 735.656 178.231 735.395 178.231C735.133 178.231 734.921 178.412 734.921 178.635C734.921 178.857 735.133 179.038 735.395 179.038Z" fill="white"/>
<path id="Vector_39" d="M634.533 220.643C634.795 220.643 635.007 220.463 635.007 220.24C635.007 220.017 634.795 219.837 634.533 219.837C634.272 219.837 634.06 220.017 634.06 220.24C634.06 220.463 634.272 220.643 634.533 220.643Z" fill="white"/>
<path id="Vector_40" d="M729.023 293.461C729.285 293.461 729.497 293.28 729.497 293.057C729.497 292.835 729.285 292.654 729.023 292.654C728.762 292.654 728.55 292.835 728.55 293.057C728.55 293.28 728.762 293.461 729.023 293.461Z" fill="white"/>
<path id="Vector_41" d="M658.633 197.168C658.895 197.168 659.107 196.987 659.107 196.764C659.107 196.542 658.895 196.361 658.633 196.361C658.371 196.361 658.159 196.542 658.159 196.764C658.159 196.987 658.371 197.168 658.633 197.168Z" fill="white"/>
<path id="Vector_42" d="M646.067 169.171C646.329 169.171 646.541 168.99 646.541 168.767C646.541 168.545 646.329 168.364 646.067 168.364C645.806 168.364 645.594 168.545 645.594 168.767C645.594 168.99 645.806 169.171 646.067 169.171Z" fill="white"/>
<path id="Vector_43" d="M518.056 77.4547C518.318 77.4547 518.53 77.2742 518.53 77.0516C518.53 76.8289 518.318 76.6484 518.056 76.6484C517.795 76.6484 517.583 76.8289 517.583 77.0516C517.583 77.2742 517.795 77.4547 518.056 77.4547Z" fill="white"/>
<path id="Vector_44" d="M758.217 238.514C758.479 238.514 758.691 238.334 758.691 238.111C758.691 237.888 758.479 237.708 758.217 237.708C757.956 237.708 757.744 237.888 757.744 238.111C757.744 238.334 757.956 238.514 758.217 238.514Z" fill="white"/>
<path id="Vector_45" d="M564.843 74.733C565.105 74.733 565.317 74.5525 565.317 74.3299C565.317 74.1072 565.105 73.9268 564.843 73.9268C564.581 73.9268 564.369 74.1072 564.369 74.3299C564.369 74.5525 564.581 74.733 564.843 74.733Z" fill="white"/>
<path id="Vector_46" d="M545.421 140.981C545.683 140.981 545.895 140.801 545.895 140.578C545.895 140.355 545.683 140.175 545.421 140.175C545.159 140.175 544.947 140.355 544.947 140.578C544.947 140.801 545.159 140.981 545.421 140.981Z" fill="white"/>
<path id="Vector_47" d="M503.966 199.354C504.228 199.354 504.44 199.174 504.44 198.951C504.44 198.728 504.228 198.548 503.966 198.548C503.705 198.548 503.493 198.728 503.493 198.951C503.493 199.174 503.705 199.354 503.966 199.354Z" fill="white"/>
<path id="Vector_48" d="M570.991 30.1139C571.253 30.1139 571.465 29.9334 571.465 29.7107C571.465 29.4881 571.253 29.3076 570.991 29.3076C570.73 29.3076 570.518 29.4881 570.518 29.7107C570.518 29.9334 570.73 30.1139 570.991 30.1139Z" fill="white"/>
<path id="Vector_49" d="M672.071 83.1412C672.332 83.1412 672.544 82.9607 672.544 82.7381C672.544 82.5154 672.332 82.335 672.071 82.335C671.809 82.335 671.597 82.5154 671.597 82.7381C671.597 82.9607 671.809 83.1412 672.071 83.1412Z" fill="white"/>
<path id="Vector_50" d="M756.667 96.2652C756.929 96.2652 757.141 96.0847 757.141 95.8621C757.141 95.6395 756.929 95.459 756.667 95.459C756.406 95.459 756.194 95.6395 756.194 95.8621C756.194 96.0847 756.406 96.2652 756.667 96.2652Z" fill="white"/>
<path id="Vector_51" d="M493.031 37.7462C493.293 37.7462 493.505 37.5657 493.505 37.3431C493.505 37.1204 493.293 36.9399 493.031 36.9399C492.77 36.9399 492.558 37.1204 492.558 37.3431C492.558 37.5657 492.77 37.7462 493.031 37.7462Z" fill="white"/>
<path id="Vector_52" d="M408.432 157.927C408.694 157.927 408.906 157.747 408.906 157.524C408.906 157.302 408.694 157.121 408.432 157.121C408.171 157.121 407.958 157.302 407.958 157.524C407.958 157.747 408.171 157.927 408.432 157.927Z" fill="white"/>
<path id="Vector_53" d="M449.521 104.356C449.782 104.356 449.994 104.176 449.994 103.953C449.994 103.73 449.782 103.55 449.521 103.55C449.259 103.55 449.047 103.73 449.047 103.953C449.047 104.176 449.259 104.356 449.521 104.356Z" fill="white"/>
<path id="Vector_54" d="M494.5 158.624C494.762 158.624 494.974 158.443 494.974 158.221C494.974 157.998 494.762 157.817 494.5 157.817C494.239 157.817 494.027 157.998 494.027 158.221C494.027 158.443 494.239 158.624 494.5 158.624Z" fill="white"/>
<path id="Vector_55" d="M670.636 258.203C670.897 258.203 671.109 258.022 671.109 257.8C671.109 257.577 670.897 257.396 670.636 257.396C670.374 257.396 670.162 257.577 670.162 257.8C670.162 258.022 670.374 258.203 670.636 258.203Z" fill="white"/>
<path id="Vector_56" d="M652.54 35.4117C652.801 35.4117 653.013 35.2312 653.013 35.0086C653.013 34.786 652.801 34.6055 652.54 34.6055C652.278 34.6055 652.066 34.786 652.066 35.0086C652.066 35.2312 652.278 35.4117 652.54 35.4117Z" fill="white"/>
<path id="Vector_57" d="M725.936 46.4898C726.198 46.4898 726.41 46.3094 726.41 46.0867C726.41 45.8641 726.198 45.6836 725.936 45.6836C725.675 45.6836 725.463 45.8641 725.463 46.0867C725.463 46.3094 725.675 46.4898 725.936 46.4898Z" fill="white"/>
<path id="Vector_58" d="M524.149 330.488C524.411 330.488 524.623 330.307 524.623 330.085C524.623 329.862 524.411 329.682 524.149 329.682C523.888 329.682 523.676 329.862 523.676 330.085C523.676 330.307 523.888 330.488 524.149 330.488Z" fill="white"/>
<path id="Vector_59" d="M512.018 334.862C512.279 334.862 512.491 334.682 512.491 334.459C512.491 334.237 512.279 334.056 512.018 334.056C511.756 334.056 511.544 334.237 511.544 334.459C511.544 334.682 511.756 334.862 512.018 334.862Z" fill="white"/>
<path id="Vector_60" d="M477.746 298.021C478.007 298.021 478.219 297.841 478.219 297.618C478.219 297.395 478.007 297.215 477.746 297.215C477.484 297.215 477.272 297.395 477.272 297.618C477.272 297.841 477.484 298.021 477.746 298.021Z" fill="white"/>
<path id="Vector_61" d="M488.189 344C488.451 344 488.663 343.82 488.663 343.597C488.663 343.374 488.451 343.194 488.189 343.194C487.928 343.194 487.716 343.374 487.716 343.597C487.716 343.82 487.928 344 488.189 344Z" fill="white"/>
<path id="Vector_62" d="M396.085 228.42C396.347 228.42 396.559 228.24 396.559 228.017C396.559 227.794 396.347 227.614 396.085 227.614C395.824 227.614 395.612 227.794 395.612 228.017C395.612 228.24 395.824 228.42 396.085 228.42Z" fill="white"/>
<path id="Vector_63" d="M434.384 231.336C434.645 231.336 434.857 231.155 434.857 230.932C434.857 230.71 434.645 230.529 434.384 230.529C434.122 230.529 433.91 230.71 433.91 230.932C433.91 231.155 434.122 231.336 434.384 231.336Z" fill="white"/>
<path id="Vector_64" d="M426.931 279.455C427.193 279.455 427.405 279.275 427.405 279.052C427.405 278.829 427.193 278.649 426.931 278.649C426.67 278.649 426.458 278.829 426.458 279.052C426.458 279.275 426.67 279.455 426.931 279.455Z" fill="white"/>
<path id="Vector_65" d="M420.567 294.521C420.828 294.521 421.04 294.341 421.04 294.118C421.04 293.895 420.828 293.715 420.567 293.715C420.305 293.715 420.093 293.895 420.093 294.118C420.093 294.341 420.305 294.521 420.567 294.521Z" fill="white"/>
<path id="Vector_66" d="M213.266 285.677C213.527 285.677 213.739 285.496 213.739 285.274C213.739 285.051 213.527 284.871 213.266 284.871C213.004 284.871 212.792 285.051 212.792 285.274C212.792 285.496 213.004 285.677 213.266 285.677Z" fill="white"/>
<path id="Vector_67" d="M211.023 207.034C211.285 207.034 211.497 206.853 211.497 206.631C211.497 206.408 211.285 206.228 211.023 206.228C210.762 206.228 210.55 206.408 210.55 206.631C210.55 206.853 210.762 207.034 211.023 207.034Z" fill="white"/>
<path id="Vector_68" d="M338.617 257.254C338.879 257.254 339.091 257.074 339.091 256.851C339.091 256.629 338.879 256.448 338.617 256.448C338.356 256.448 338.144 256.629 338.144 256.851C338.144 257.074 338.356 257.254 338.617 257.254Z" fill="white"/>
<path id="Vector_69" d="M312.904 265.358C313.166 265.358 313.378 265.178 313.378 264.955C313.378 264.733 313.166 264.552 312.904 264.552C312.643 264.552 312.431 264.733 312.431 264.955C312.431 265.178 312.643 265.358 312.904 265.358Z" fill="white"/>
<path id="Vector_70" d="M325.362 52.2789C325.623 52.2789 325.835 52.0984 325.835 51.8758C325.835 51.6531 325.623 51.4727 325.362 51.4727C325.1 51.4727 324.888 51.6531 324.888 51.8758C324.888 52.0984 325.1 52.2789 325.362 52.2789Z" fill="white"/>
<path id="Vector_71" d="M225.371 0.80625C225.632 0.80625 225.844 0.625765 225.844 0.403125C225.844 0.180485 225.632 0 225.371 0C225.109 0 224.897 0.180485 224.897 0.403125C224.897 0.625765 225.109 0.80625 225.371 0.80625Z" fill="white"/>
<path id="Vector_72" d="M171.946 18.2545C172.207 18.2545 172.419 18.074 172.419 17.8514C172.419 17.6287 172.207 17.4482 171.946 17.4482C171.684 17.4482 171.472 17.6287 171.472 17.8514C171.472 18.074 171.684 18.2545 171.946 18.2545Z" fill="white"/>
<path id="Vector_73" d="M111.535 258.848C111.796 258.848 112.008 258.668 112.008 258.445C112.008 258.222 111.796 258.042 111.535 258.042C111.273 258.042 111.061 258.222 111.061 258.445C111.061 258.668 111.273 258.848 111.535 258.848Z" fill="white"/>
</g>
</svg>
