<svg width="1440" height="728" viewBox="0 0 1440 728" fill="none" xmlns="http://www.w3.org/2000/svg">
<g id="star-hero">
<path id="Vector" d="M160.2 268.423C160.697 268.423 161.1 268.041 161.1 267.57C161.1 267.098 160.697 266.716 160.2 266.716C159.703 266.716 159.3 267.098 159.3 267.57C159.3 268.041 159.703 268.423 160.2 268.423Z" fill="url(#paint0_radial_115_2888)"/>
<path id="Vector_2" d="M286.485 624.919C286.982 624.919 287.385 624.537 287.385 624.066C287.385 623.595 286.982 623.213 286.485 623.213C285.988 623.213 285.585 623.595 285.585 624.066C285.585 624.537 285.988 624.919 286.485 624.919Z" fill="url(#paint1_radial_115_2888)"/>
<path id="Vector_3" d="M59.8941 512.591C60.3912 512.591 60.7941 512.209 60.7941 511.738C60.7941 511.267 60.3912 510.885 59.8941 510.885C59.3971 510.885 58.9941 511.267 58.9941 511.738C58.9941 512.209 59.3971 512.591 59.8941 512.591Z" fill="url(#paint2_radial_115_2888)"/>
<path id="Vector_4" d="M284.891 432.236C285.388 432.236 285.791 431.854 285.791 431.383C285.791 430.912 285.388 430.53 284.891 430.53C284.394 430.53 283.991 430.912 283.991 431.383C283.991 431.854 284.394 432.236 284.891 432.236Z" fill="url(#paint3_radial_115_2888)"/>
<path id="Vector_5" d="M562.946 187.618C563.443 187.618 563.846 187.236 563.846 186.765C563.846 186.293 563.443 185.911 562.946 185.911C562.449 185.911 562.046 186.293 562.046 186.765C562.046 187.236 562.449 187.618 562.946 187.618Z" fill="url(#paint4_radial_115_2888)"/>
<path id="Vector_6" d="M152.861 576.488C153.358 576.488 153.761 576.106 153.761 575.635C153.761 575.163 153.358 574.781 152.861 574.781C152.364 574.781 151.961 575.163 151.961 575.635C151.961 576.106 152.364 576.488 152.861 576.488Z" fill="url(#paint5_radial_115_2888)"/>
<path id="Vector_7" d="M926.806 537.235C927.303 537.235 927.706 536.853 927.706 536.382C927.706 535.91 927.303 535.529 926.806 535.529C926.309 535.529 925.906 535.91 925.906 536.382C925.906 536.853 926.309 537.235 926.806 537.235Z" fill="url(#paint6_radial_115_2888)"/>
<path id="Vector_8" d="M184.907 475.171C185.404 475.171 185.807 474.789 185.807 474.318C185.807 473.846 185.404 473.465 184.907 473.465C184.41 473.465 184.007 473.846 184.007 474.318C184.007 474.789 184.41 475.171 184.907 475.171Z" fill="url(#paint7_radial_115_2888)"/>
<path id="Vector_9" d="M170.641 406.872C171.138 406.872 171.541 406.49 171.541 406.019C171.541 405.548 171.138 405.166 170.641 405.166C170.144 405.166 169.741 405.548 169.741 406.019C169.741 406.49 170.144 406.872 170.641 406.872Z" fill="url(#paint8_radial_115_2888)"/>
<path id="Vector_10" d="M283.195 197.739C283.692 197.739 284.095 197.357 284.095 196.886C284.095 196.415 283.692 196.033 283.195 196.033C282.698 196.033 282.295 196.415 282.295 196.886C282.295 197.357 282.698 197.739 283.195 197.739Z" fill="url(#paint9_radial_115_2888)"/>
<path id="Vector_11" d="M491.943 546.43C492.44 546.43 492.843 546.048 492.843 545.577C492.843 545.106 492.44 544.724 491.943 544.724C491.446 544.724 491.043 545.106 491.043 545.577C491.043 546.048 491.446 546.43 491.943 546.43Z" fill="url(#paint10_radial_115_2888)"/>
<path id="Vector_12" d="M0.9 107.549C1.39706 107.549 1.8 107.167 1.8 106.696C1.8 106.225 1.39706 105.843 0.9 105.843C0.402944 105.843 0 106.225 0 106.696C0 107.167 0.402944 107.549 0.9 107.549Z" fill="url(#paint11_radial_115_2888)"/>
<path id="Vector_13" d="M386.132 697.594C386.629 697.594 387.032 697.212 387.032 696.741C387.032 696.27 386.629 695.888 386.132 695.888C385.635 695.888 385.232 696.27 385.232 696.741C385.232 697.212 385.635 697.594 386.132 697.594Z" fill="url(#paint12_radial_115_2888)"/>
<path id="Vector_14" d="M493.998 695.656C494.495 695.656 494.898 695.274 494.898 694.803C494.898 694.332 494.495 693.95 493.998 693.95C493.501 693.95 493.098 694.332 493.098 694.803C493.098 695.274 493.501 695.656 493.998 695.656Z" fill="url(#paint13_radial_115_2888)"/>
<path id="Vector_15" d="M157.823 193.025C158.32 193.025 158.723 192.643 158.723 192.172C158.723 191.701 158.32 191.319 157.823 191.319C157.326 191.319 156.923 191.701 156.923 192.172C156.923 192.643 157.326 193.025 157.823 193.025Z" fill="url(#paint14_radial_115_2888)"/>
<path id="Vector_16" d="M274.158 121.039C274.655 121.039 275.058 120.657 275.058 120.186C275.058 119.715 274.655 119.333 274.158 119.333C273.661 119.333 273.258 119.715 273.258 120.186C273.258 120.657 273.661 121.039 274.158 121.039Z" fill="url(#paint15_radial_115_2888)"/>
<path id="Vector_17" d="M209.439 698.563C209.936 698.563 210.339 698.181 210.339 697.71C210.339 697.239 209.936 696.857 209.439 696.857C208.942 696.857 208.539 697.239 208.539 697.71C208.539 698.181 208.942 698.563 209.439 698.563Z" fill="url(#paint16_radial_115_2888)"/>
<path id="Vector_18" d="M663.499 684.997C663.996 684.997 664.399 684.615 664.399 684.143C664.399 683.672 663.996 683.29 663.499 683.29C663.002 683.29 662.599 683.672 662.599 684.143C662.599 684.615 663.002 684.997 663.499 684.997Z" fill="url(#paint17_radial_115_2888)"/>
<path id="Vector_19" d="M102.93 231.392C103.427 231.392 103.83 231.01 103.83 230.539C103.83 230.068 103.427 229.686 102.93 229.686C102.433 229.686 102.03 230.068 102.03 230.539C102.03 231.01 102.433 231.392 102.93 231.392Z" fill="url(#paint18_radial_115_2888)"/>
<path id="Vector_20" d="M58.4283 668.524C58.9254 668.524 59.3283 668.142 59.3283 667.671C59.3283 667.2 58.9254 666.818 58.4283 666.818C57.9313 666.818 57.5283 667.2 57.5283 667.671C57.5283 668.142 57.9313 668.524 58.4283 668.524Z" fill="url(#paint19_radial_115_2888)"/>
<path id="Vector_21" d="M27.8971 606.427C28.3941 606.427 28.7971 606.045 28.7971 605.574C28.7971 605.103 28.3941 604.721 27.8971 604.721C27.4 604.721 26.9971 605.103 26.9971 605.574C26.9971 606.045 27.4 606.427 27.8971 606.427Z" fill="url(#paint20_radial_115_2888)"/>
<path id="Vector_22" d="M389.214 162.707C389.712 162.707 390.114 162.325 390.114 161.853C390.114 161.382 389.712 161 389.214 161C388.717 161 388.314 161.382 388.314 161.853C388.314 162.325 388.717 162.707 389.214 162.707Z" fill="url(#paint21_radial_115_2888)"/>
<path id="Vector_23" d="M496.052 125.884C496.549 125.884 496.952 125.502 496.952 125.031C496.952 124.56 496.549 124.178 496.052 124.178C495.555 124.178 495.152 124.56 495.152 125.031C495.152 125.502 495.555 125.884 496.052 125.884Z" fill="url(#paint22_radial_115_2888)"/>
<path id="Vector_24" d="M51.2369 339.064C51.734 339.064 52.1369 338.682 52.1369 338.211C52.1369 337.74 51.734 337.358 51.2369 337.358C50.7399 337.358 50.3369 337.74 50.3369 338.211C50.3369 338.682 50.7399 339.064 51.2369 339.064Z" fill="url(#paint23_radial_115_2888)"/>
<path id="Vector_25" d="M84.7369 69.2851C85.234 69.2851 85.6369 68.9032 85.6369 68.432C85.6369 67.9608 85.234 67.5789 84.7369 67.5789C84.2399 67.5789 83.8369 67.9608 83.8369 68.432C83.8369 68.9032 84.2399 69.2851 84.7369 69.2851Z" fill="url(#paint24_radial_115_2888)"/>
<path id="Vector_26" d="M740.546 211.156C741.043 211.156 741.446 210.774 741.446 210.303C741.446 209.832 741.043 209.45 740.546 209.45C740.048 209.45 739.646 209.832 739.646 210.303C739.646 210.774 740.048 211.156 740.546 211.156Z" fill="url(#paint25_radial_115_2888)"/>
<path id="Vector_27" d="M491.943 60.9619C492.44 60.9619 492.843 60.5799 492.843 60.1088C492.843 59.6376 492.44 59.2557 491.943 59.2557C491.446 59.2557 491.043 59.6376 491.043 60.1088C491.043 60.5799 491.446 60.9619 491.943 60.9619Z" fill="url(#paint26_radial_115_2888)"/>
<path id="Vector_28" d="M1150.78 619.697C1151.28 619.697 1151.68 619.315 1151.68 618.843C1151.68 618.372 1151.28 617.99 1150.78 617.99C1150.29 617.99 1149.88 618.372 1149.88 618.843C1149.88 619.315 1150.29 619.697 1150.78 619.697Z" fill="url(#paint27_radial_115_2888)"/>
<path id="Vector_29" d="M463.502 406.872C463.999 406.872 464.402 406.49 464.402 406.019C464.402 405.548 463.999 405.166 463.502 405.166C463.004 405.166 462.602 405.548 462.602 406.019C462.602 406.49 463.004 406.872 463.502 406.872Z" fill="url(#paint28_radial_115_2888)"/>
<path id="Vector_30" d="M253.652 316.869C254.149 316.869 254.552 316.487 254.552 316.016C254.552 315.545 254.149 315.163 253.652 315.163C253.155 315.163 252.752 315.545 252.752 316.016C252.752 316.487 253.155 316.869 253.652 316.869Z" fill="url(#paint29_radial_115_2888)"/>
<path id="Vector_31" d="M231.839 298.252C232.337 298.252 232.739 297.87 232.739 297.399C232.739 296.927 232.337 296.546 231.839 296.546C231.342 296.546 230.939 296.927 230.939 297.399C230.939 297.87 231.342 298.252 231.839 298.252Z" fill="url(#paint30_radial_115_2888)"/>
<path id="Vector_32" d="M213.438 68.4622C213.935 68.4622 214.338 68.0802 214.338 67.609C214.338 67.1379 213.935 66.7559 213.438 66.7559C212.941 66.7559 212.538 67.1379 212.538 67.609C212.538 68.0802 212.941 68.4622 213.438 68.4622Z" fill="url(#paint31_radial_115_2888)"/>
<path id="Vector_33" d="M994.227 506.336C994.724 506.336 995.127 505.955 995.127 505.483C995.127 505.012 994.724 504.63 994.227 504.63C993.73 504.63 993.327 505.012 993.327 505.483C993.327 505.955 993.73 506.336 994.227 506.336Z" fill="url(#paint32_radial_115_2888)"/>
<path id="Vector_34" d="M1271.27 338.778C1271.77 338.778 1272.17 338.396 1272.17 337.925C1272.17 337.454 1271.77 337.072 1271.27 337.072C1270.77 337.072 1270.37 337.454 1270.37 337.925C1270.37 338.396 1270.77 338.778 1271.27 338.778Z" fill="url(#paint33_radial_115_2888)"/>
<path id="Vector_35" d="M1410.72 296.091C1411.22 296.091 1411.62 295.709 1411.62 295.238C1411.62 294.767 1411.22 294.385 1410.72 294.385C1410.23 294.385 1409.82 294.767 1409.82 295.238C1409.82 295.709 1410.23 296.091 1410.72 296.091Z" fill="url(#paint34_radial_115_2888)"/>
<path id="Vector_36" d="M1204.88 706.315C1205.38 706.315 1205.78 705.933 1205.78 705.462C1205.78 704.99 1205.38 704.608 1204.88 704.608C1204.38 704.608 1203.98 704.99 1203.98 705.462C1203.98 705.933 1204.38 706.315 1204.88 706.315Z" fill="url(#paint35_radial_115_2888)"/>
<path id="Vector_37" d="M1265.17 285.805C1265.67 285.805 1266.07 285.423 1266.07 284.952C1266.07 284.481 1265.67 284.099 1265.17 284.099C1264.68 284.099 1264.27 284.481 1264.27 284.952C1264.27 285.423 1264.68 285.805 1265.17 285.805Z" fill="url(#paint36_radial_115_2888)"/>
<path id="Vector_38" d="M1395.73 378.894C1396.23 378.894 1396.63 378.512 1396.63 378.041C1396.63 377.57 1396.23 377.188 1395.73 377.188C1395.24 377.188 1394.83 377.57 1394.83 378.041C1394.83 378.512 1395.24 378.894 1395.73 378.894Z" fill="url(#paint37_radial_115_2888)"/>
<path id="Vector_39" d="M1204.08 466.942C1204.57 466.942 1204.98 466.56 1204.98 466.089C1204.98 465.618 1204.57 465.236 1204.08 465.236C1203.58 465.236 1203.18 465.618 1203.18 466.089C1203.18 466.56 1203.58 466.942 1204.08 466.942Z" fill="url(#paint38_radial_115_2888)"/>
<path id="Vector_40" d="M1383.63 621.043C1384.12 621.043 1384.53 620.662 1384.53 620.19C1384.53 619.719 1384.12 619.337 1383.63 619.337C1383.13 619.337 1382.73 619.719 1382.73 620.19C1382.73 620.662 1383.13 621.043 1383.63 621.043Z" fill="url(#paint39_radial_115_2888)"/>
<path id="Vector_41" d="M1249.87 417.26C1250.37 417.26 1250.77 416.878 1250.77 416.407C1250.77 415.936 1250.37 415.554 1249.87 415.554C1249.38 415.554 1248.97 415.936 1248.97 416.407C1248.97 416.878 1249.38 417.26 1249.87 417.26Z" fill="url(#paint40_radial_115_2888)"/>
<path id="Vector_42" d="M1225.99 358.013C1226.49 358.013 1226.89 357.631 1226.89 357.16C1226.89 356.689 1226.49 356.307 1225.99 356.307C1225.5 356.307 1225.09 356.689 1225.09 357.16C1225.09 357.631 1225.5 358.013 1225.99 358.013Z" fill="url(#paint41_radial_115_2888)"/>
<path id="Vector_43" d="M982.753 163.916C983.25 163.916 983.653 163.534 983.653 163.063C983.653 162.592 983.25 162.21 982.753 162.21C982.255 162.21 981.853 162.592 981.853 163.063C981.853 163.534 982.255 163.916 982.753 163.916Z" fill="url(#paint42_radial_115_2888)"/>
<path id="Vector_44" d="M1439.1 504.763C1439.6 504.763 1440 504.381 1440 503.91C1440 503.439 1439.6 503.057 1439.1 503.057C1438.6 503.057 1438.2 503.439 1438.2 503.91C1438.2 504.381 1438.6 504.763 1439.1 504.763Z" fill="url(#paint43_radial_115_2888)"/>
<path id="Vector_45" d="M1071.65 158.156C1072.15 158.156 1072.55 157.774 1072.55 157.303C1072.55 156.832 1072.15 156.45 1071.65 156.45C1071.16 156.45 1070.75 156.832 1070.75 157.303C1070.75 157.774 1071.16 158.156 1071.65 158.156Z" fill="url(#paint44_radial_115_2888)"/>
<path id="Vector_46" d="M1034.75 298.355C1035.25 298.355 1035.65 297.973 1035.65 297.501C1035.65 297.03 1035.25 296.648 1034.75 296.648C1034.25 296.648 1033.85 297.03 1033.85 297.501C1033.85 297.973 1034.25 298.355 1034.75 298.355Z" fill="url(#paint45_radial_115_2888)"/>
<path id="Vector_47" d="M955.979 421.889C956.476 421.889 956.879 421.507 956.879 421.036C956.879 420.565 956.476 420.183 955.979 420.183C955.482 420.183 955.079 420.565 955.079 421.036C955.079 421.507 955.482 421.889 955.979 421.889Z" fill="url(#paint46_radial_115_2888)"/>
<path id="Vector_48" d="M1083.34 63.7305C1083.83 63.7305 1084.24 63.3485 1084.24 62.8773C1084.24 62.4062 1083.83 62.0242 1083.34 62.0242C1082.84 62.0242 1082.44 62.4062 1082.44 62.8773C1082.44 63.3485 1082.84 63.7305 1083.34 63.7305Z" fill="url(#paint47_radial_115_2888)"/>
<path id="Vector_49" d="M1275.41 175.951C1275.9 175.951 1276.31 175.569 1276.31 175.098C1276.31 174.627 1275.9 174.245 1275.41 174.245C1274.91 174.245 1274.51 174.627 1274.51 175.098C1274.51 175.569 1274.91 175.951 1275.41 175.951Z" fill="url(#paint48_radial_115_2888)"/>
<path id="Vector_50" d="M1436.15 203.723C1436.65 203.723 1437.05 203.342 1437.05 202.87C1437.05 202.399 1436.65 202.017 1436.15 202.017C1435.66 202.017 1435.25 202.399 1435.25 202.87C1435.25 203.342 1435.66 203.723 1436.15 203.723Z" fill="url(#paint49_radial_115_2888)"/>
<path id="Vector_51" d="M935.2 79.8797C935.697 79.8797 936.1 79.4978 936.1 79.0266C936.1 78.5554 935.697 78.1735 935.2 78.1735C934.703 78.1735 934.3 78.5554 934.3 79.0266C934.3 79.4978 934.703 79.8797 935.2 79.8797Z" fill="url(#paint50_radial_115_2888)"/>
<path id="Vector_52" d="M774.447 334.219C774.944 334.219 775.347 333.837 775.347 333.366C775.347 332.894 774.944 332.513 774.447 332.513C773.95 332.513 773.547 332.894 773.547 333.366C773.547 333.837 773.95 334.219 774.447 334.219Z" fill="url(#paint51_radial_115_2888)"/>
<path id="Vector_53" d="M852.52 220.847C853.017 220.847 853.42 220.465 853.42 219.994C853.42 219.522 853.017 219.14 852.52 219.14C852.023 219.14 851.62 219.522 851.62 219.994C851.62 220.465 852.023 220.847 852.52 220.847Z" fill="url(#paint52_radial_115_2888)"/>
<path id="Vector_54" d="M937.992 335.692C938.489 335.692 938.892 335.31 938.892 334.839C938.892 334.368 938.489 333.986 937.992 333.986C937.495 333.986 937.092 334.368 937.092 334.839C937.092 335.31 937.495 335.692 937.992 335.692Z" fill="url(#paint53_radial_115_2888)"/>
<path id="Vector_55" d="M1272.68 546.43C1273.18 546.43 1273.58 546.048 1273.58 545.577C1273.58 545.106 1273.18 544.724 1272.68 544.724C1272.18 544.724 1271.78 545.106 1271.78 545.577C1271.78 546.048 1272.18 546.43 1272.68 546.43Z" fill="url(#paint54_radial_115_2888)"/>
<path id="Vector_56" d="M1238.29 74.9423C1238.79 74.9423 1239.19 74.5604 1239.19 74.0892C1239.19 73.618 1238.79 73.2361 1238.29 73.2361C1237.8 73.2361 1237.39 73.618 1237.39 74.0892C1237.39 74.5604 1237.8 74.9423 1238.29 74.9423Z" fill="url(#paint55_radial_115_2888)"/>
<path id="Vector_57" d="M1377.76 98.3859C1378.26 98.3859 1378.66 98.004 1378.66 97.5328C1378.66 97.0616 1378.26 96.6797 1377.76 96.6797C1377.26 96.6797 1376.86 97.0616 1376.86 97.5328C1376.86 98.004 1377.26 98.3859 1377.76 98.3859Z" fill="url(#paint56_radial_115_2888)"/>
<path id="Vector_58" d="M994.331 699.405C994.828 699.405 995.231 699.023 995.231 698.552C995.231 698.081 994.828 697.699 994.331 697.699C993.834 697.699 993.431 698.081 993.431 698.552C993.431 699.023 993.834 699.405 994.331 699.405Z" fill="url(#paint57_radial_115_2888)"/>
<path id="Vector_59" d="M971.278 708.663C971.775 708.663 972.178 708.281 972.178 707.81C972.178 707.339 971.775 706.957 971.278 706.957C970.781 706.957 970.378 707.339 970.378 707.81C970.378 708.281 970.781 708.663 971.278 708.663Z" fill="url(#paint58_radial_115_2888)"/>
<path id="Vector_60" d="M906.152 630.695C906.649 630.695 907.052 630.313 907.052 629.842C907.052 629.371 906.649 628.989 906.152 628.989C905.655 628.989 905.252 629.371 905.252 629.842C905.252 630.313 905.655 630.695 906.152 630.695Z" fill="url(#paint59_radial_115_2888)"/>
<path id="Vector_61" d="M926 728C926.497 728 926.9 727.618 926.9 727.147C926.9 726.676 926.497 726.294 926 726.294C925.503 726.294 925.1 726.676 925.1 727.147C925.1 727.618 925.503 728 926 728Z" fill="url(#paint60_radial_115_2888)"/>
<path id="Vector_62" d="M750.986 483.399C751.483 483.399 751.886 483.017 751.886 482.545C751.886 482.074 751.483 481.692 750.986 481.692C750.489 481.692 750.086 482.074 750.086 482.545C750.086 483.017 750.489 483.399 750.986 483.399Z" fill="url(#paint61_radial_115_2888)"/>
<path id="Vector_63" d="M823.762 489.571C824.259 489.571 824.662 489.189 824.662 488.717C824.662 488.246 824.259 487.864 823.762 487.864C823.265 487.864 822.862 488.246 822.862 488.717C822.862 489.189 823.265 489.571 823.762 489.571Z" fill="url(#paint62_radial_115_2888)"/>
<path id="Vector_64" d="M809.6 591.402C810.097 591.402 810.5 591.02 810.5 590.549C810.5 590.078 810.097 589.696 809.6 589.696C809.103 589.696 808.7 590.078 808.7 590.549C808.7 591.02 809.103 591.402 809.6 591.402Z" fill="url(#paint63_radial_115_2888)"/>
<path id="Vector_65" d="M797.505 623.289C798.002 623.289 798.404 622.907 798.404 622.436C798.404 621.965 798.002 621.583 797.505 621.583C797.007 621.583 796.604 621.965 796.604 622.436C796.604 622.907 797.007 623.289 797.505 623.289Z" fill="url(#paint64_radial_115_2888)"/>
<path id="Vector_66" d="M403.596 604.57C404.093 604.57 404.496 604.188 404.496 603.717C404.496 603.246 404.093 602.864 403.596 602.864C403.099 602.864 402.696 603.246 402.696 603.717C402.696 604.188 403.099 604.57 403.596 604.57Z" fill="url(#paint65_radial_115_2888)"/>
<path id="Vector_67" d="M399.335 438.14C399.832 438.14 400.235 437.758 400.235 437.287C400.235 436.816 399.832 436.434 399.335 436.434C398.838 436.434 398.435 436.816 398.435 437.287C398.435 437.758 398.838 438.14 399.335 438.14Z" fill="url(#paint66_radial_115_2888)"/>
<path id="Vector_68" d="M641.785 544.422C642.282 544.422 642.685 544.04 642.685 543.569C642.685 543.098 642.282 542.716 641.785 542.716C641.288 542.716 640.885 543.098 640.885 543.569C640.885 544.04 641.288 544.422 641.785 544.422Z" fill="url(#paint67_radial_115_2888)"/>
<path id="Vector_69" d="M592.927 561.573C593.424 561.573 593.827 561.191 593.827 560.72C593.827 560.249 593.424 559.867 592.927 559.867C592.43 559.867 592.027 560.249 592.027 560.72C592.027 561.191 592.43 561.573 592.927 561.573Z" fill="url(#paint68_radial_115_2888)"/>
<path id="Vector_70" d="M616.599 110.635C617.096 110.635 617.499 110.253 617.499 109.781C617.499 109.31 617.096 108.928 616.599 108.928C616.102 108.928 615.699 109.31 615.699 109.781C615.699 110.253 616.102 110.635 616.599 110.635Z" fill="url(#paint69_radial_115_2888)"/>
<path id="Vector_71" d="M426.597 1.70625C427.094 1.70625 427.497 1.32429 427.497 0.853125C427.497 0.381957 427.094 0 426.597 0C426.1 0 425.697 0.381957 425.697 0.853125C425.697 1.32429 426.1 1.70625 426.597 1.70625Z" fill="url(#paint70_radial_115_2888)"/>
<path id="Vector_72" d="M325.083 38.6331C325.58 38.6331 325.983 38.2512 325.983 37.78C325.983 37.3088 325.58 36.9269 325.083 36.9269C324.586 36.9269 324.183 37.3088 324.183 37.78C324.183 38.2512 324.586 38.6331 325.083 38.6331Z" fill="url(#paint71_radial_115_2888)"/>
<path id="Vector_73" d="M210.29 547.796C210.787 547.796 211.19 547.414 211.19 546.943C211.19 546.472 210.787 546.09 210.29 546.09C209.793 546.09 209.39 546.472 209.39 546.943C209.39 547.414 209.793 547.796 210.29 547.796Z" fill="url(#paint72_radial_115_2888)"/>
</g>
<defs>
<radialGradient id="paint0_radial_115_2888" cx="0" cy="0" r="1" gradientUnits="userSpaceOnUse" gradientTransform="translate(160.615 266.867) rotate(125.281) scale(1.59002 2.59029)">
<stop stop-color="#C4B5FD"/>
<stop offset="0.46875" stop-color="#4C1D95"/>
<stop offset="0.880208" stop-color="#7C3AED"/>
</radialGradient>
<radialGradient id="paint1_radial_115_2888" cx="0" cy="0" r="1" gradientUnits="userSpaceOnUse" gradientTransform="translate(286.9 623.364) rotate(125.281) scale(1.59002 2.59029)">
<stop stop-color="#C4B5FD"/>
<stop offset="0.46875" stop-color="#4C1D95"/>
<stop offset="0.880208" stop-color="#7C3AED"/>
</radialGradient>
<radialGradient id="paint2_radial_115_2888" cx="0" cy="0" r="1" gradientUnits="userSpaceOnUse" gradientTransform="translate(60.3093 511.036) rotate(125.281) scale(1.59002 2.59029)">
<stop stop-color="#C4B5FD"/>
<stop offset="0.46875" stop-color="#4C1D95"/>
<stop offset="0.880208" stop-color="#7C3AED"/>
</radialGradient>
<radialGradient id="paint3_radial_115_2888" cx="0" cy="0" r="1" gradientUnits="userSpaceOnUse" gradientTransform="translate(285.306 430.681) rotate(125.281) scale(1.59002 2.59029)">
<stop stop-color="#C4B5FD"/>
<stop offset="0.46875" stop-color="#4C1D95"/>
<stop offset="0.880208" stop-color="#7C3AED"/>
</radialGradient>
<radialGradient id="paint4_radial_115_2888" cx="0" cy="0" r="1" gradientUnits="userSpaceOnUse" gradientTransform="translate(563.361 186.062) rotate(125.281) scale(1.59002 2.59029)">
<stop stop-color="#C4B5FD"/>
<stop offset="0.46875" stop-color="#4C1D95"/>
<stop offset="0.880208" stop-color="#7C3AED"/>
</radialGradient>
<radialGradient id="paint5_radial_115_2888" cx="0" cy="0" r="1" gradientUnits="userSpaceOnUse" gradientTransform="translate(153.276 574.932) rotate(125.281) scale(1.59002 2.59029)">
<stop stop-color="#C4B5FD"/>
<stop offset="0.46875" stop-color="#4C1D95"/>
<stop offset="0.880208" stop-color="#7C3AED"/>
</radialGradient>
<radialGradient id="paint6_radial_115_2888" cx="0" cy="0" r="1" gradientUnits="userSpaceOnUse" gradientTransform="translate(927.221 535.68) rotate(125.281) scale(1.59002 2.59029)">
<stop stop-color="#C4B5FD"/>
<stop offset="0.46875" stop-color="#4C1D95"/>
<stop offset="0.880208" stop-color="#7C3AED"/>
</radialGradient>
<radialGradient id="paint7_radial_115_2888" cx="0" cy="0" r="1" gradientUnits="userSpaceOnUse" gradientTransform="translate(185.322 473.616) rotate(125.281) scale(1.59002 2.59029)">
<stop stop-color="#C4B5FD"/>
<stop offset="0.46875" stop-color="#4C1D95"/>
<stop offset="0.880208" stop-color="#7C3AED"/>
</radialGradient>
<radialGradient id="paint8_radial_115_2888" cx="0" cy="0" r="1" gradientUnits="userSpaceOnUse" gradientTransform="translate(171.056 405.317) rotate(125.281) scale(1.59002 2.59029)">
<stop stop-color="#C4B5FD"/>
<stop offset="0.46875" stop-color="#4C1D95"/>
<stop offset="0.880208" stop-color="#7C3AED"/>
</radialGradient>
<radialGradient id="paint9_radial_115_2888" cx="0" cy="0" r="1" gradientUnits="userSpaceOnUse" gradientTransform="translate(283.61 196.184) rotate(125.281) scale(1.59002 2.59029)">
<stop stop-color="#C4B5FD"/>
<stop offset="0.46875" stop-color="#4C1D95"/>
<stop offset="0.880208" stop-color="#7C3AED"/>
</radialGradient>
<radialGradient id="paint10_radial_115_2888" cx="0" cy="0" r="1" gradientUnits="userSpaceOnUse" gradientTransform="translate(492.358 544.875) rotate(125.281) scale(1.59002 2.59029)">
<stop stop-color="#C4B5FD"/>
<stop offset="0.46875" stop-color="#4C1D95"/>
<stop offset="0.880208" stop-color="#7C3AED"/>
</radialGradient>
<radialGradient id="paint11_radial_115_2888" cx="0" cy="0" r="1" gradientUnits="userSpaceOnUse" gradientTransform="translate(1.31515 105.994) rotate(125.281) scale(1.59002 2.59029)">
<stop stop-color="#C4B5FD"/>
<stop offset="0.46875" stop-color="#4C1D95"/>
<stop offset="0.880208" stop-color="#7C3AED"/>
</radialGradient>
<radialGradient id="paint12_radial_115_2888" cx="0" cy="0" r="1" gradientUnits="userSpaceOnUse" gradientTransform="translate(386.548 696.039) rotate(125.281) scale(1.59002 2.59029)">
<stop stop-color="#C4B5FD"/>
<stop offset="0.46875" stop-color="#4C1D95"/>
<stop offset="0.880208" stop-color="#7C3AED"/>
</radialGradient>
<radialGradient id="paint13_radial_115_2888" cx="0" cy="0" r="1" gradientUnits="userSpaceOnUse" gradientTransform="translate(494.413 694.101) rotate(125.281) scale(1.59002 2.59029)">
<stop stop-color="#C4B5FD"/>
<stop offset="0.46875" stop-color="#4C1D95"/>
<stop offset="0.880208" stop-color="#7C3AED"/>
</radialGradient>
<radialGradient id="paint14_radial_115_2888" cx="0" cy="0" r="1" gradientUnits="userSpaceOnUse" gradientTransform="translate(158.238 191.47) rotate(125.281) scale(1.59002 2.59029)">
<stop stop-color="#C4B5FD"/>
<stop offset="0.46875" stop-color="#4C1D95"/>
<stop offset="0.880208" stop-color="#7C3AED"/>
</radialGradient>
<radialGradient id="paint15_radial_115_2888" cx="0" cy="0" r="1" gradientUnits="userSpaceOnUse" gradientTransform="translate(274.573 119.484) rotate(125.281) scale(1.59002 2.59029)">
<stop stop-color="#C4B5FD"/>
<stop offset="0.46875" stop-color="#4C1D95"/>
<stop offset="0.880208" stop-color="#7C3AED"/>
</radialGradient>
<radialGradient id="paint16_radial_115_2888" cx="0" cy="0" r="1" gradientUnits="userSpaceOnUse" gradientTransform="translate(209.854 697.008) rotate(125.281) scale(1.59002 2.59029)">
<stop stop-color="#C4B5FD"/>
<stop offset="0.46875" stop-color="#4C1D95"/>
<stop offset="0.880208" stop-color="#7C3AED"/>
</radialGradient>
<radialGradient id="paint17_radial_115_2888" cx="0" cy="0" r="1" gradientUnits="userSpaceOnUse" gradientTransform="translate(663.914 683.441) rotate(125.281) scale(1.59002 2.59029)">
<stop stop-color="#C4B5FD"/>
<stop offset="0.46875" stop-color="#4C1D95"/>
<stop offset="0.880208" stop-color="#7C3AED"/>
</radialGradient>
<radialGradient id="paint18_radial_115_2888" cx="0" cy="0" r="1" gradientUnits="userSpaceOnUse" gradientTransform="translate(103.345 229.837) rotate(125.281) scale(1.59002 2.59029)">
<stop stop-color="#C4B5FD"/>
<stop offset="0.46875" stop-color="#4C1D95"/>
<stop offset="0.880208" stop-color="#7C3AED"/>
</radialGradient>
<radialGradient id="paint19_radial_115_2888" cx="0" cy="0" r="1" gradientUnits="userSpaceOnUse" gradientTransform="translate(58.8435 666.969) rotate(125.281) scale(1.59002 2.59029)">
<stop stop-color="#C4B5FD"/>
<stop offset="0.46875" stop-color="#4C1D95"/>
<stop offset="0.880208" stop-color="#7C3AED"/>
</radialGradient>
<radialGradient id="paint20_radial_115_2888" cx="0" cy="0" r="1" gradientUnits="userSpaceOnUse" gradientTransform="translate(28.3122 604.872) rotate(125.281) scale(1.59002 2.59029)">
<stop stop-color="#C4B5FD"/>
<stop offset="0.46875" stop-color="#4C1D95"/>
<stop offset="0.880208" stop-color="#7C3AED"/>
</radialGradient>
<radialGradient id="paint21_radial_115_2888" cx="0" cy="0" r="1" gradientUnits="userSpaceOnUse" gradientTransform="translate(389.63 161.151) rotate(125.281) scale(1.59002 2.59029)">
<stop stop-color="#C4B5FD"/>
<stop offset="0.46875" stop-color="#4C1D95"/>
<stop offset="0.880208" stop-color="#7C3AED"/>
</radialGradient>
<radialGradient id="paint22_radial_115_2888" cx="0" cy="0" r="1" gradientUnits="userSpaceOnUse" gradientTransform="translate(496.467 124.329) rotate(125.281) scale(1.59002 2.59029)">
<stop stop-color="#C4B5FD"/>
<stop offset="0.46875" stop-color="#4C1D95"/>
<stop offset="0.880208" stop-color="#7C3AED"/>
</radialGradient>
<radialGradient id="paint23_radial_115_2888" cx="0" cy="0" r="1" gradientUnits="userSpaceOnUse" gradientTransform="translate(51.6521 337.509) rotate(125.281) scale(1.59002 2.59029)">
<stop stop-color="#C4B5FD"/>
<stop offset="0.46875" stop-color="#4C1D95"/>
<stop offset="0.880208" stop-color="#7C3AED"/>
</radialGradient>
<radialGradient id="paint24_radial_115_2888" cx="0" cy="0" r="1" gradientUnits="userSpaceOnUse" gradientTransform="translate(85.1521 67.7299) rotate(125.281) scale(1.59002 2.59029)">
<stop stop-color="#C4B5FD"/>
<stop offset="0.46875" stop-color="#4C1D95"/>
<stop offset="0.880208" stop-color="#7C3AED"/>
</radialGradient>
<radialGradient id="paint25_radial_115_2888" cx="0" cy="0" r="1" gradientUnits="userSpaceOnUse" gradientTransform="translate(740.961 209.601) rotate(125.281) scale(1.59002 2.59029)">
<stop stop-color="#C4B5FD"/>
<stop offset="0.46875" stop-color="#4C1D95"/>
<stop offset="0.880208" stop-color="#7C3AED"/>
</radialGradient>
<radialGradient id="paint26_radial_115_2888" cx="0" cy="0" r="1" gradientUnits="userSpaceOnUse" gradientTransform="translate(492.358 59.4067) rotate(125.281) scale(1.59002 2.59029)">
<stop stop-color="#C4B5FD"/>
<stop offset="0.46875" stop-color="#4C1D95"/>
<stop offset="0.880208" stop-color="#7C3AED"/>
</radialGradient>
<radialGradient id="paint27_radial_115_2888" cx="0" cy="0" r="1" gradientUnits="userSpaceOnUse" gradientTransform="translate(1151.2 618.141) rotate(125.281) scale(1.59002 2.59029)">
<stop stop-color="#C4B5FD"/>
<stop offset="0.46875" stop-color="#4C1D95"/>
<stop offset="0.880208" stop-color="#7C3AED"/>
</radialGradient>
<radialGradient id="paint28_radial_115_2888" cx="0" cy="0" r="1" gradientUnits="userSpaceOnUse" gradientTransform="translate(463.917 405.317) rotate(125.281) scale(1.59002 2.59029)">
<stop stop-color="#C4B5FD"/>
<stop offset="0.46875" stop-color="#4C1D95"/>
<stop offset="0.880208" stop-color="#7C3AED"/>
</radialGradient>
<radialGradient id="paint29_radial_115_2888" cx="0" cy="0" r="1" gradientUnits="userSpaceOnUse" gradientTransform="translate(254.067 315.314) rotate(125.281) scale(1.59002 2.59029)">
<stop stop-color="#C4B5FD"/>
<stop offset="0.46875" stop-color="#4C1D95"/>
<stop offset="0.880208" stop-color="#7C3AED"/>
</radialGradient>
<radialGradient id="paint30_radial_115_2888" cx="0" cy="0" r="1" gradientUnits="userSpaceOnUse" gradientTransform="translate(232.255 296.697) rotate(125.281) scale(1.59002 2.59029)">
<stop stop-color="#C4B5FD"/>
<stop offset="0.46875" stop-color="#4C1D95"/>
<stop offset="0.880208" stop-color="#7C3AED"/>
</radialGradient>
<radialGradient id="paint31_radial_115_2888" cx="0" cy="0" r="1" gradientUnits="userSpaceOnUse" gradientTransform="translate(213.853 66.907) rotate(125.281) scale(1.59002 2.59029)">
<stop stop-color="#C4B5FD"/>
<stop offset="0.46875" stop-color="#4C1D95"/>
<stop offset="0.880208" stop-color="#7C3AED"/>
</radialGradient>
<radialGradient id="paint32_radial_115_2888" cx="0" cy="0" r="1" gradientUnits="userSpaceOnUse" gradientTransform="translate(994.642 504.781) rotate(125.281) scale(1.59002 2.59029)">
<stop stop-color="#C4B5FD"/>
<stop offset="0.46875" stop-color="#4C1D95"/>
<stop offset="0.880208" stop-color="#7C3AED"/>
</radialGradient>
<radialGradient id="paint33_radial_115_2888" cx="0" cy="0" r="1" gradientUnits="userSpaceOnUse" gradientTransform="translate(1271.69 337.223) rotate(125.281) scale(1.59002 2.59029)">
<stop stop-color="#C4B5FD"/>
<stop offset="0.46875" stop-color="#4C1D95"/>
<stop offset="0.880208" stop-color="#7C3AED"/>
</radialGradient>
<radialGradient id="paint34_radial_115_2888" cx="0" cy="0" r="1" gradientUnits="userSpaceOnUse" gradientTransform="translate(1411.14 294.536) rotate(125.281) scale(1.59002 2.59029)">
<stop stop-color="#C4B5FD"/>
<stop offset="0.46875" stop-color="#4C1D95"/>
<stop offset="0.880208" stop-color="#7C3AED"/>
</radialGradient>
<radialGradient id="paint35_radial_115_2888" cx="0" cy="0" r="1" gradientUnits="userSpaceOnUse" gradientTransform="translate(1205.29 704.759) rotate(125.281) scale(1.59002 2.59029)">
<stop stop-color="#C4B5FD"/>
<stop offset="0.46875" stop-color="#4C1D95"/>
<stop offset="0.880208" stop-color="#7C3AED"/>
</radialGradient>
<radialGradient id="paint36_radial_115_2888" cx="0" cy="0" r="1" gradientUnits="userSpaceOnUse" gradientTransform="translate(1265.59 284.25) rotate(125.281) scale(1.59002 2.59029)">
<stop stop-color="#C4B5FD"/>
<stop offset="0.46875" stop-color="#4C1D95"/>
<stop offset="0.880208" stop-color="#7C3AED"/>
</radialGradient>
<radialGradient id="paint37_radial_115_2888" cx="0" cy="0" r="1" gradientUnits="userSpaceOnUse" gradientTransform="translate(1396.15 377.339) rotate(125.281) scale(1.59002 2.59029)">
<stop stop-color="#C4B5FD"/>
<stop offset="0.46875" stop-color="#4C1D95"/>
<stop offset="0.880208" stop-color="#7C3AED"/>
</radialGradient>
<radialGradient id="paint38_radial_115_2888" cx="0" cy="0" r="1" gradientUnits="userSpaceOnUse" gradientTransform="translate(1204.49 465.387) rotate(125.281) scale(1.59002 2.59029)">
<stop stop-color="#C4B5FD"/>
<stop offset="0.46875" stop-color="#4C1D95"/>
<stop offset="0.880208" stop-color="#7C3AED"/>
</radialGradient>
<radialGradient id="paint39_radial_115_2888" cx="0" cy="0" r="1" gradientUnits="userSpaceOnUse" gradientTransform="translate(1384.04 619.488) rotate(125.281) scale(1.59002 2.59029)">
<stop stop-color="#C4B5FD"/>
<stop offset="0.46875" stop-color="#4C1D95"/>
<stop offset="0.880208" stop-color="#7C3AED"/>
</radialGradient>
<radialGradient id="paint40_radial_115_2888" cx="0" cy="0" r="1" gradientUnits="userSpaceOnUse" gradientTransform="translate(1250.29 415.705) rotate(125.281) scale(1.59002 2.59029)">
<stop stop-color="#C4B5FD"/>
<stop offset="0.46875" stop-color="#4C1D95"/>
<stop offset="0.880208" stop-color="#7C3AED"/>
</radialGradient>
<radialGradient id="paint41_radial_115_2888" cx="0" cy="0" r="1" gradientUnits="userSpaceOnUse" gradientTransform="translate(1226.41 356.458) rotate(125.281) scale(1.59002 2.59029)">
<stop stop-color="#C4B5FD"/>
<stop offset="0.46875" stop-color="#4C1D95"/>
<stop offset="0.880208" stop-color="#7C3AED"/>
</radialGradient>
<radialGradient id="paint42_radial_115_2888" cx="0" cy="0" r="1" gradientUnits="userSpaceOnUse" gradientTransform="translate(983.168 162.361) rotate(125.281) scale(1.59002 2.59029)">
<stop stop-color="#C4B5FD"/>
<stop offset="0.46875" stop-color="#4C1D95"/>
<stop offset="0.880208" stop-color="#7C3AED"/>
</radialGradient>
<radialGradient id="paint43_radial_115_2888" cx="0" cy="0" r="1" gradientUnits="userSpaceOnUse" gradientTransform="translate(1439.52 503.208) rotate(125.281) scale(1.59002 2.59029)">
<stop stop-color="#C4B5FD"/>
<stop offset="0.46875" stop-color="#4C1D95"/>
<stop offset="0.880208" stop-color="#7C3AED"/>
</radialGradient>
<radialGradient id="paint44_radial_115_2888" cx="0" cy="0" r="1" gradientUnits="userSpaceOnUse" gradientTransform="translate(1072.07 156.601) rotate(125.281) scale(1.59002 2.59029)">
<stop stop-color="#C4B5FD"/>
<stop offset="0.46875" stop-color="#4C1D95"/>
<stop offset="0.880208" stop-color="#7C3AED"/>
</radialGradient>
<radialGradient id="paint45_radial_115_2888" cx="0" cy="0" r="1" gradientUnits="userSpaceOnUse" gradientTransform="translate(1035.17 296.799) rotate(125.281) scale(1.59002 2.59029)">
<stop stop-color="#C4B5FD"/>
<stop offset="0.46875" stop-color="#4C1D95"/>
<stop offset="0.880208" stop-color="#7C3AED"/>
</radialGradient>
<radialGradient id="paint46_radial_115_2888" cx="0" cy="0" r="1" gradientUnits="userSpaceOnUse" gradientTransform="translate(956.394 420.334) rotate(125.281) scale(1.59002 2.59029)">
<stop stop-color="#C4B5FD"/>
<stop offset="0.46875" stop-color="#4C1D95"/>
<stop offset="0.880208" stop-color="#7C3AED"/>
</radialGradient>
<radialGradient id="paint47_radial_115_2888" cx="0" cy="0" r="1" gradientUnits="userSpaceOnUse" gradientTransform="translate(1083.75 62.1752) rotate(125.281) scale(1.59002 2.59029)">
<stop stop-color="#C4B5FD"/>
<stop offset="0.46875" stop-color="#4C1D95"/>
<stop offset="0.880208" stop-color="#7C3AED"/>
</radialGradient>
<radialGradient id="paint48_radial_115_2888" cx="0" cy="0" r="1" gradientUnits="userSpaceOnUse" gradientTransform="translate(1275.82 174.396) rotate(125.281) scale(1.59002 2.59029)">
<stop stop-color="#C4B5FD"/>
<stop offset="0.46875" stop-color="#4C1D95"/>
<stop offset="0.880208" stop-color="#7C3AED"/>
</radialGradient>
<radialGradient id="paint49_radial_115_2888" cx="0" cy="0" r="1" gradientUnits="userSpaceOnUse" gradientTransform="translate(1436.57 202.168) rotate(125.281) scale(1.59002 2.59029)">
<stop stop-color="#C4B5FD"/>
<stop offset="0.46875" stop-color="#4C1D95"/>
<stop offset="0.880208" stop-color="#7C3AED"/>
</radialGradient>
<radialGradient id="paint50_radial_115_2888" cx="0" cy="0" r="1" gradientUnits="userSpaceOnUse" gradientTransform="translate(935.615 78.3245) rotate(125.281) scale(1.59002 2.59029)">
<stop stop-color="#C4B5FD"/>
<stop offset="0.46875" stop-color="#4C1D95"/>
<stop offset="0.880208" stop-color="#7C3AED"/>
</radialGradient>
<radialGradient id="paint51_radial_115_2888" cx="0" cy="0" r="1" gradientUnits="userSpaceOnUse" gradientTransform="translate(774.862 332.664) rotate(125.281) scale(1.59002 2.59029)">
<stop stop-color="#C4B5FD"/>
<stop offset="0.46875" stop-color="#4C1D95"/>
<stop offset="0.880208" stop-color="#7C3AED"/>
</radialGradient>
<radialGradient id="paint52_radial_115_2888" cx="0" cy="0" r="1" gradientUnits="userSpaceOnUse" gradientTransform="translate(852.935 219.291) rotate(125.281) scale(1.59002 2.59029)">
<stop stop-color="#C4B5FD"/>
<stop offset="0.46875" stop-color="#4C1D95"/>
<stop offset="0.880208" stop-color="#7C3AED"/>
</radialGradient>
<radialGradient id="paint53_radial_115_2888" cx="0" cy="0" r="1" gradientUnits="userSpaceOnUse" gradientTransform="translate(938.407 334.137) rotate(125.281) scale(1.59002 2.59029)">
<stop stop-color="#C4B5FD"/>
<stop offset="0.46875" stop-color="#4C1D95"/>
<stop offset="0.880208" stop-color="#7C3AED"/>
</radialGradient>
<radialGradient id="paint54_radial_115_2888" cx="0" cy="0" r="1" gradientUnits="userSpaceOnUse" gradientTransform="translate(1273.09 544.875) rotate(125.281) scale(1.59002 2.59029)">
<stop stop-color="#C4B5FD"/>
<stop offset="0.46875" stop-color="#4C1D95"/>
<stop offset="0.880208" stop-color="#7C3AED"/>
</radialGradient>
<radialGradient id="paint55_radial_115_2888" cx="0" cy="0" r="1" gradientUnits="userSpaceOnUse" gradientTransform="translate(1238.71 73.3871) rotate(125.281) scale(1.59002 2.59029)">
<stop stop-color="#C4B5FD"/>
<stop offset="0.46875" stop-color="#4C1D95"/>
<stop offset="0.880208" stop-color="#7C3AED"/>
</radialGradient>
<radialGradient id="paint56_radial_115_2888" cx="0" cy="0" r="1" gradientUnits="userSpaceOnUse" gradientTransform="translate(1378.18 96.8307) rotate(125.281) scale(1.59002 2.59029)">
<stop stop-color="#C4B5FD"/>
<stop offset="0.46875" stop-color="#4C1D95"/>
<stop offset="0.880208" stop-color="#7C3AED"/>
</radialGradient>
<radialGradient id="paint57_radial_115_2888" cx="0" cy="0" r="1" gradientUnits="userSpaceOnUse" gradientTransform="translate(994.746 697.85) rotate(125.281) scale(1.59002 2.59029)">
<stop stop-color="#C4B5FD"/>
<stop offset="0.46875" stop-color="#4C1D95"/>
<stop offset="0.880208" stop-color="#7C3AED"/>
</radialGradient>
<radialGradient id="paint58_radial_115_2888" cx="0" cy="0" r="1" gradientUnits="userSpaceOnUse" gradientTransform="translate(971.693 707.108) rotate(125.281) scale(1.59002 2.59029)">
<stop stop-color="#C4B5FD"/>
<stop offset="0.46875" stop-color="#4C1D95"/>
<stop offset="0.880208" stop-color="#7C3AED"/>
</radialGradient>
<radialGradient id="paint59_radial_115_2888" cx="0" cy="0" r="1" gradientUnits="userSpaceOnUse" gradientTransform="translate(906.567 629.14) rotate(125.281) scale(1.59002 2.59029)">
<stop stop-color="#C4B5FD"/>
<stop offset="0.46875" stop-color="#4C1D95"/>
<stop offset="0.880208" stop-color="#7C3AED"/>
</radialGradient>
<radialGradient id="paint60_radial_115_2888" cx="0" cy="0" r="1" gradientUnits="userSpaceOnUse" gradientTransform="translate(926.415 726.445) rotate(125.281) scale(1.59002 2.59029)">
<stop stop-color="#C4B5FD"/>
<stop offset="0.46875" stop-color="#4C1D95"/>
<stop offset="0.880208" stop-color="#7C3AED"/>
</radialGradient>
<radialGradient id="paint61_radial_115_2888" cx="0" cy="0" r="1" gradientUnits="userSpaceOnUse" gradientTransform="translate(751.401 481.843) rotate(125.281) scale(1.59002 2.59029)">
<stop stop-color="#C4B5FD"/>
<stop offset="0.46875" stop-color="#4C1D95"/>
<stop offset="0.880208" stop-color="#7C3AED"/>
</radialGradient>
<radialGradient id="paint62_radial_115_2888" cx="0" cy="0" r="1" gradientUnits="userSpaceOnUse" gradientTransform="translate(824.177 488.015) rotate(125.281) scale(1.59002 2.59029)">
<stop stop-color="#C4B5FD"/>
<stop offset="0.46875" stop-color="#4C1D95"/>
<stop offset="0.880208" stop-color="#7C3AED"/>
</radialGradient>
<radialGradient id="paint63_radial_115_2888" cx="0" cy="0" r="1" gradientUnits="userSpaceOnUse" gradientTransform="translate(810.015 589.847) rotate(125.281) scale(1.59002 2.59029)">
<stop stop-color="#C4B5FD"/>
<stop offset="0.46875" stop-color="#4C1D95"/>
<stop offset="0.880208" stop-color="#7C3AED"/>
</radialGradient>
<radialGradient id="paint64_radial_115_2888" cx="0" cy="0" r="1" gradientUnits="userSpaceOnUse" gradientTransform="translate(797.92 621.734) rotate(125.281) scale(1.59002 2.59029)">
<stop stop-color="#C4B5FD"/>
<stop offset="0.46875" stop-color="#4C1D95"/>
<stop offset="0.880208" stop-color="#7C3AED"/>
</radialGradient>
<radialGradient id="paint65_radial_115_2888" cx="0" cy="0" r="1" gradientUnits="userSpaceOnUse" gradientTransform="translate(404.011 603.015) rotate(125.281) scale(1.59002 2.59029)">
<stop stop-color="#C4B5FD"/>
<stop offset="0.46875" stop-color="#4C1D95"/>
<stop offset="0.880208" stop-color="#7C3AED"/>
</radialGradient>
<radialGradient id="paint66_radial_115_2888" cx="0" cy="0" r="1" gradientUnits="userSpaceOnUse" gradientTransform="translate(399.75 436.585) rotate(125.281) scale(1.59002 2.59029)">
<stop stop-color="#C4B5FD"/>
<stop offset="0.46875" stop-color="#4C1D95"/>
<stop offset="0.880208" stop-color="#7C3AED"/>
</radialGradient>
<radialGradient id="paint67_radial_115_2888" cx="0" cy="0" r="1" gradientUnits="userSpaceOnUse" gradientTransform="translate(642.2 542.867) rotate(125.281) scale(1.59002 2.59029)">
<stop stop-color="#C4B5FD"/>
<stop offset="0.46875" stop-color="#4C1D95"/>
<stop offset="0.880208" stop-color="#7C3AED"/>
</radialGradient>
<radialGradient id="paint68_radial_115_2888" cx="0" cy="0" r="1" gradientUnits="userSpaceOnUse" gradientTransform="translate(593.342 560.018) rotate(125.281) scale(1.59002 2.59029)">
<stop stop-color="#C4B5FD"/>
<stop offset="0.46875" stop-color="#4C1D95"/>
<stop offset="0.880208" stop-color="#7C3AED"/>
</radialGradient>
<radialGradient id="paint69_radial_115_2888" cx="0" cy="0" r="1" gradientUnits="userSpaceOnUse" gradientTransform="translate(617.014 109.079) rotate(125.281) scale(1.59002 2.59029)">
<stop stop-color="#C4B5FD"/>
<stop offset="0.46875" stop-color="#4C1D95"/>
<stop offset="0.880208" stop-color="#7C3AED"/>
</radialGradient>
<radialGradient id="paint70_radial_115_2888" cx="0" cy="0" r="1" gradientUnits="userSpaceOnUse" gradientTransform="translate(427.012 0.151037) rotate(125.281) scale(1.59002 2.59029)">
<stop stop-color="#C4B5FD"/>
<stop offset="0.46875" stop-color="#4C1D95"/>
<stop offset="0.880208" stop-color="#7C3AED"/>
</radialGradient>
<radialGradient id="paint71_radial_115_2888" cx="0" cy="0" r="1" gradientUnits="userSpaceOnUse" gradientTransform="translate(325.498 37.0779) rotate(125.281) scale(1.59002 2.59029)">
<stop stop-color="#C4B5FD"/>
<stop offset="0.46875" stop-color="#4C1D95"/>
<stop offset="0.880208" stop-color="#7C3AED"/>
</radialGradient>
<radialGradient id="paint72_radial_115_2888" cx="0" cy="0" r="1" gradientUnits="userSpaceOnUse" gradientTransform="translate(210.705 546.241) rotate(125.281) scale(1.59002 2.59029)">
<stop stop-color="#C4B5FD"/>
<stop offset="0.46875" stop-color="#4C1D95"/>
<stop offset="0.880208" stop-color="#7C3AED"/>
</radialGradient>
</defs>
</svg>
